<svg version="1.1" viewBox="0.0 0.0 1058.3333333333333 721.7952755905512" fill="none" stroke="none" stroke-linecap="square" stroke-miterlimit="10" xmlns:xlink="http://www.w3.org/1999/xlink" xmlns="http://www.w3.org/2000/svg"><clipPath id="p.0"><path d="m0 0l1058.3334 0l0 721.7953l-1058.3334 0l0 -721.7953z" clip-rule="nonzero"/></clipPath><g clip-path="url(#p.0)"><path fill="#000000" fill-opacity="0.0" d="m0 0l1058.3334 0l0 721.7953l-1058.3334 0z" fill-rule="evenodd"/><path fill="#fff2cc" d="m287.16797 296.4348l0 0c0 -9.275299 7.519104 -16.794403 16.794403 -16.794403l174.44272 0c4.4541626 0 8.725861 1.7694092 11.875427 4.918976c3.1495667 3.1495361 4.9189453 7.4212646 4.9189453 11.875427l0 263.82855c0 9.275269 -7.519104 16.794373 -16.794373 16.794373l-174.44272 0c-9.275299 0 -16.794403 -7.519104 -16.794403 -16.794373z" fill-rule="evenodd"/><path stroke="#ffffff" stroke-width="3.0" stroke-linejoin="round" stroke-linecap="butt" d="m287.16797 296.4348l0 0c0 -9.275299 7.519104 -16.794403 16.794403 -16.794403l174.44272 0c4.4541626 0 8.725861 1.7694092 11.875427 4.918976c3.1495667 3.1495361 4.9189453 7.4212646 4.9189453 11.875427l0 263.82855c0 9.275269 -7.519104 16.794373 -16.794373 16.794373l-174.44272 0c-9.275299 0 -16.794403 -7.519104 -16.794403 -16.794373z" fill-rule="evenodd"/><path fill="#d9d2e9" d="m588.1312 218.96236l0 0c0 -9.275284 7.519104 -16.794373 16.794373 -16.794373l174.44275 0c4.4541626 0 8.725891 1.7693939 11.875427 4.9189606c3.1495361 3.1495514 4.9189453 7.4212646 4.9189453 11.875412l0 263.82855c0 9.275269 -7.519104 16.794373 -16.794373 16.794373l-174.44275 0c-9.275269 0 -16.794373 -7.519104 -16.794373 -16.794373z" fill-rule="evenodd"/><path stroke="#ffffff" stroke-width="3.0" stroke-linejoin="round" stroke-linecap="butt" d="m588.1312 218.96236l0 0c0 -9.275284 7.519104 -16.794373 16.794373 -16.794373l174.44275 0c4.4541626 0 8.725891 1.7693939 11.875427 4.9189606c3.1495361 3.1495514 4.9189453 7.4212646 4.9189453 11.875412l0 263.82855c0 9.275269 -7.519104 16.794373 -16.794373 16.794373l-174.44275 0c-9.275269 0 -16.794373 -7.519104 -16.794373 -16.794373z" fill-rule="evenodd"/><path fill="#d9d2e9" d="m428.98163 121.112976l0 0c0 -1.7511368 1.4195862 -3.1707153 3.1707153 -3.1707153l201.69006 0c0.8409424 0 1.6473999 0.33405304 2.2420044 0.9286804c0.5946655 0.59461975 0.92871094 1.4011078 0.92871094 2.242035l0 32.93416c0 1.7511292 -1.4195557 3.1707153 -3.1707153 3.1707153l-201.69006 0c-1.7511292 0 -3.1707153 -1.4195862 -3.1707153 -3.1707153z" fill-rule="evenodd"/><path stroke="#ffffff" stroke-width="3.0" stroke-linejoin="round" stroke-linecap="butt" d="m428.98163 121.112976l0 0c0 -1.7511368 1.4195862 -3.1707153 3.1707153 -3.1707153l201.69006 0c0.8409424 0 1.6473999 0.33405304 2.2420044 0.9286804c0.5946655 0.59461975 0.92871094 1.4011078 0.92871094 2.242035l0 32.93416c0 1.7511292 -1.4195557 3.1707153 -3.1707153 3.1707153l-201.69006 0c-1.7511292 0 -3.1707153 -1.4195862 -3.1707153 -3.1707153z" fill-rule="evenodd"/><path fill="#000000" fill-opacity="0.0" d="m532.9974 157.21785l159.1496 44.944885" fill-rule="evenodd"/><path stroke="#ffffff" stroke-width="3.0" stroke-linejoin="round" stroke-linecap="butt" d="m532.9974 157.21785l141.82715 40.052902" fill-rule="evenodd"/><path fill="#ffffff" stroke="#ffffff" stroke-width="3.0" stroke-linecap="butt" d="m673.4778 202.03943l14.448547 -1.068634l-11.755127 -8.468735z" fill-rule="evenodd"/><path fill="#000000" fill-opacity="0.0" d="m692.147 499.5853c0 12.500153 -42.995117 40.71042 -75.24109 25.000275c-32.24597 -15.710236 -53.742737 -75.34094 -75.24109 -134.97208c-21.498291 -59.631134 -42.998108 -119.262665 -75.2471 -134.97205c-32.248962 -15.709366 -75.2471 12.503418 -75.2471 25.006836" fill-rule="evenodd"/><path stroke="#ffffff" stroke-width="3.0" stroke-linejoin="round" stroke-linecap="butt" d="m692.147 499.5853c0 12.500153 -42.995117 40.71042 -75.24109 25.000275c-32.24597 -15.710236 -53.742737 -75.34094 -75.24109 -134.97205c-21.498291 -59.631165 -42.99814 -119.262695 -75.2471 -134.97206c-16.124481 -7.8546753 -34.93628 -4.728836 -49.71692 1.9236298c-3.69516 1.6630859 -7.1383667 3.5466309 -10.22467 5.534088c-1.5431519 0.9937439 -2.9970703 2.0134583 -4.348633 3.0445862l-0.14605713 0.11264038" fill-rule="evenodd"/><path fill="#ffffff" stroke="#ffffff" stroke-width="3.0" stroke-linecap="butt" d="m398.0195 262.28033l-4.2148438 13.861389l12.138702 -7.90921z" fill-rule="evenodd"/><path fill="#000000" fill-opacity="0.0" d="m391.18372 577.05774l0 25.00116l-129.01569 0l0 -464.46573l166.81097 0" fill-rule="evenodd"/><path stroke="#ffffff" stroke-width="3.0" stroke-linejoin="round" stroke-linecap="butt" d="m391.18372 577.05774l0 25.00116l-129.01569 0l0 -464.46573l156.52972 0" fill-rule="evenodd"/><path fill="#ffffff" stroke="#ffffff" stroke-width="3.0" stroke-linecap="butt" d="m418.69775 137.59317l-3.3737488 3.373764l9.269287 -3.373764l-9.269287 -3.3737488z" fill-rule="evenodd"/></g></svg>