<svg version="1.1" viewBox="0.0 0.0 1058.3333333333333 721.7952755905512" fill="none" stroke="none" stroke-linecap="square" stroke-miterlimit="10" xmlns:xlink="http://www.w3.org/1999/xlink" xmlns="http://www.w3.org/2000/svg"><clipPath id="p.0"><path d="m0 0l1058.3334 0l0 721.7953l-1058.3334 0l0 -721.7953z" clip-rule="nonzero"/></clipPath><g clip-path="url(#p.0)"><path fill="#000000" fill-opacity="0.0" d="m0 0l1058.3334 0l0 721.7953l-1058.3334 0z" fill-rule="evenodd"/><path fill="#cfe2f3" d="m392.7244 208.97769l37.795288 -37.795273l37.795288 37.795273l-37.795288 37.795273z" fill-rule="evenodd"/><path stroke="#ffffff" stroke-width="1.0" stroke-linejoin="round" stroke-linecap="butt" d="m392.7244 208.97769l37.795288 -37.795273l37.795288 37.795273l-37.795288 37.795273z" fill-rule="evenodd"/><path fill="#cfe2f3" d="m591.6693 127.888535l0 0c0 -2.3889313 1.9365845 -4.3255386 4.3255005 -4.3255386l66.939514 0c1.1471558 0 2.2473755 0.455719 3.0585938 1.266922c0.81121826 0.8111954 1.2669067 1.9114151 1.2669067 3.0586166l0 17.301666c0 2.3889313 -1.9365845 4.3255463 -4.3255005 4.3255463l-66.939514 0c-2.388916 0 -4.3255005 -1.936615 -4.3255005 -4.3255463z" fill-rule="evenodd"/><path stroke="#ffffff" stroke-width="1.0" stroke-linejoin="round" stroke-linecap="butt" d="m591.6693 127.888535l0 0c0 -2.3889313 1.9365845 -4.3255386 4.3255005 -4.3255386l66.939514 0c1.1471558 0 2.2473755 0.455719 3.0585938 1.266922c0.81121826 0.8111954 1.2669067 1.9114151 1.2669067 3.0586166l0 17.301666c0 2.3889313 -1.9365845 4.3255463 -4.3255005 4.3255463l-66.939514 0c-2.388916 0 -4.3255005 -1.936615 -4.3255005 -4.3255463z" fill-rule="evenodd"/><path fill="#000000" fill-opacity="0.0" d="m591.6693 136.53937l-161.16537 34.645676" fill-rule="evenodd"/><path stroke="#ffffff" stroke-width="2.0" stroke-linejoin="round" stroke-linecap="butt" d="m591.6693 136.53937l-149.43338 32.123642" fill-rule="evenodd"/><path fill="#ffffff" stroke="#ffffff" stroke-width="2.0" stroke-linecap="butt" d="m441.54163 165.43333l-8.179199 5.137207l9.56778 1.3221588z" fill-rule="evenodd"/><path fill="#cfe2f3" d="m180.92126 309.2429l0 0c0 -3.2209778 2.6111298 -5.832123 5.832138 -5.832123l73.438095 0c1.5467529 0 3.030182 0.6144409 4.123932 1.7081909c1.09375 1.09375 1.7081909 2.5771484 1.7081909 4.123932l0 23.32785c0 3.2210083 -2.611145 5.8321533 -5.832123 5.8321533l-73.438095 0c-3.2210083 0 -5.832138 -2.611145 -5.832138 -5.8321533z" fill-rule="evenodd"/><path stroke="#ffffff" stroke-width="1.0" stroke-linejoin="round" stroke-linecap="butt" d="m180.92126 309.2429l0 0c0 -3.2209778 2.6111298 -5.832123 5.832138 -5.832123l73.438095 0c1.5467529 0 3.030182 0.6144409 4.123932 1.7081909c1.09375 1.09375 1.7081909 2.5771484 1.7081909 4.123932l0 23.32785c0 3.2210083 -2.611145 5.8321533 -5.832123 5.8321533l-73.438095 0c-3.2210083 0 -5.832138 -2.611145 -5.832138 -5.8321533z" fill-rule="evenodd"/><path fill="#000000" fill-opacity="0.0" d="m392.7244 208.97769l-169.25983 0l0 94.4252" fill-rule="evenodd"/><path stroke="#ffffff" stroke-width="2.0" stroke-linejoin="round" stroke-linecap="butt" d="m392.7244 208.97769l-169.25983 0l0 82.4252" fill-rule="evenodd"/><path fill="#ffffff" stroke="#ffffff" stroke-width="2.0" stroke-linecap="butt" d="m220.1611 291.4029l3.3034668 9.076202l3.3034668 -9.076202z" fill-rule="evenodd"/><path fill="#cfe2f3" d="m407.6063 309.2429l0 0c0 -3.2209778 2.611145 -5.832123 5.8321533 -5.832123l34.162476 0c1.5467834 0 3.0302124 0.6144409 4.1239624 1.7081909c1.0937195 1.09375 1.7081909 2.5771484 1.7081909 4.123932l0 23.32785c0 3.2210083 -2.611145 5.8321533 -5.8321533 5.8321533l-34.162476 0l0 0c-3.2210083 0 -5.8321533 -2.611145 -5.8321533 -5.8321533z" fill-rule="evenodd"/><path stroke="#ffffff" stroke-width="1.0" stroke-linejoin="round" stroke-linecap="butt" d="m407.6063 309.2429l0 0c0 -3.2209778 2.611145 -5.832123 5.8321533 -5.832123l34.162476 0c1.5467834 0 3.0302124 0.6144409 4.1239624 1.7081909c1.0937195 1.09375 1.7081909 2.5771484 1.7081909 4.123932l0 23.32785c0 3.2210083 -2.611145 5.8321533 -5.8321533 5.8321533l-34.162476 0l0 0c-3.2210083 0 -5.8321533 -2.611145 -5.8321533 -5.8321533z" fill-rule="evenodd"/><path fill="#fff2cc" d="m269.3701 380.16415l0 0c0 -3.2210083 2.6111145 -5.832123 5.832123 -5.832123l73.43808 0c1.5467834 0 3.0302124 0.6144409 4.1239624 1.7081909c1.0937195 1.0937195 1.7081909 2.5771484 1.7081909 4.123932l0 23.32785c0 3.2210083 -2.611145 5.8321533 -5.8321533 5.8321533l-73.43808 0c-3.2210083 0 -5.832123 -2.611145 -5.832123 -5.8321533z" fill-rule="evenodd"/><path stroke="#ffffff" stroke-width="1.0" stroke-linejoin="round" stroke-linecap="butt" d="m269.3701 380.16415l0 0c0 -3.2210083 2.6111145 -5.832123 5.832123 -5.832123l73.43808 0c1.5467834 0 3.0302124 0.6144409 4.1239624 1.7081909c1.0937195 1.0937195 1.7081909 2.5771484 1.7081909 4.123932l0 23.32785c0 3.2210083 -2.611145 5.8321533 -5.8321533 5.8321533l-73.43808 0c-3.2210083 0 -5.832123 -2.611145 -5.832123 -5.8321533z" fill-rule="evenodd"/><path fill="#fff2cc" d="m387.9685 380.16415l0 0c0 -3.2210083 2.611145 -5.832123 5.832123 -5.832123l73.43811 0c1.5467834 0 3.030182 0.6144409 4.123932 1.7081909c1.09375 1.0937195 1.7081909 2.5771484 1.7081909 4.123932l0 23.32785c0 3.2210083 -2.611145 5.8321533 -5.832123 5.8321533l-73.43811 0c-3.2209778 0 -5.832123 -2.611145 -5.832123 -5.8321533z" fill-rule="evenodd"/><path stroke="#ffffff" stroke-width="1.0" stroke-linejoin="round" stroke-linecap="butt" d="m387.9685 380.16415l0 0c0 -3.2210083 2.611145 -5.832123 5.832123 -5.832123l73.43811 0c1.5467834 0 3.030182 0.6144409 4.123932 1.7081909c1.09375 1.0937195 1.7081909 2.5771484 1.7081909 4.123932l0 23.32785c0 3.2210083 -2.611145 5.8321533 -5.832123 5.8321533l-73.43811 0c-3.2209778 0 -5.832123 -2.611145 -5.832123 -5.8321533z" fill-rule="evenodd"/><path fill="#fff2cc" d="m506.56693 380.16415l0 0c0 -3.2210083 2.611145 -5.832123 5.832123 -5.832123l73.43811 0c1.5467529 0 3.0302124 0.6144409 4.1239624 1.7081909c1.093689 1.0937195 1.7081909 2.5771484 1.7081909 4.123932l0 23.32785c0 3.2210083 -2.611145 5.8321533 -5.8321533 5.8321533l-73.43811 0c-3.2209778 0 -5.832123 -2.611145 -5.832123 -5.8321533z" fill-rule="evenodd"/><path stroke="#ffffff" stroke-width="1.0" stroke-linejoin="round" stroke-linecap="butt" d="m506.56693 380.16415l0 0c0 -3.2210083 2.611145 -5.832123 5.832123 -5.832123l73.43811 0c1.5467529 0 3.0302124 0.6144409 4.1239624 1.7081909c1.093689 1.0937195 1.7081909 2.5771484 1.7081909 4.123932l0 23.32785c0 3.2210083 -2.611145 5.8321533 -5.8321533 5.8321533l-73.43811 0c-3.2209778 0 -5.832123 -2.611145 -5.832123 -5.8321533z" fill-rule="evenodd"/><path fill="#000000" fill-opacity="0.0" d="m430.51968 246.77296l0 56.62993" fill-rule="evenodd"/><path stroke="#ffffff" stroke-width="2.0" stroke-linejoin="round" stroke-linecap="butt" d="m430.51968 246.77296l0 44.62993" fill-rule="evenodd"/><path fill="#ffffff" stroke="#ffffff" stroke-width="2.0" stroke-linecap="butt" d="m427.21622 291.4029l3.3034668 9.076202l3.3034668 -9.076202z" fill-rule="evenodd"/><path fill="#000000" fill-opacity="0.0" d="m430.51968 338.4029l0 35.93701" fill-rule="evenodd"/><path stroke="#ffffff" stroke-width="2.0" stroke-linejoin="round" stroke-linecap="butt" d="m430.51968 338.4029l0 23.937012" fill-rule="evenodd"/><path fill="#ffffff" stroke="#ffffff" stroke-width="2.0" stroke-linecap="butt" d="m427.21622 362.3399l3.3034668 9.076172l3.3034668 -9.076172z" fill-rule="evenodd"/><path fill="#000000" fill-opacity="0.0" d="m407.6063 320.90683l-95.68503 0l0 53.417328" fill-rule="evenodd"/><path stroke="#ffffff" stroke-width="2.0" stroke-linejoin="round" stroke-linecap="butt" d="m407.6063 320.90683l-95.68503 0l0 41.417328" fill-rule="evenodd"/><path fill="#ffffff" stroke="#ffffff" stroke-width="2.0" stroke-linecap="butt" d="m308.6178 362.32416l3.3034668 9.076172l3.3034668 -9.076172z" fill-rule="evenodd"/><path fill="#000000" fill-opacity="0.0" d="m453.43307 320.9147l95.68503 0l0 53.417328" fill-rule="evenodd"/><path stroke="#ffffff" stroke-width="2.0" stroke-linejoin="round" stroke-linecap="butt" d="m453.43307 320.9147l95.68503 0l0 41.417328" fill-rule="evenodd"/><path fill="#ffffff" stroke="#ffffff" stroke-width="2.0" stroke-linecap="butt" d="m545.81464 362.33203l3.3034668 9.076172l3.3034668 -9.076172z" fill-rule="evenodd"/><path fill="#000000" fill-opacity="0.0" d="m269.3701 425.8754l0 0c0 -1.8033142 1.461853 -3.2651672 3.2651367 -3.2651672l78.57205 0c0.8659668 0 1.6964722 0.34402466 2.308838 0.95635986c0.6123352 0.6123352 0.95632935 1.4428406 0.95632935 2.3088074l0 13.060242c0 1.8032837 -1.461853 3.2651367 -3.2651672 3.2651367l-78.57205 0c-1.8032837 0 -3.2651367 -1.461853 -3.2651367 -3.2651367z" fill-rule="evenodd"/><path stroke="#ffffff" stroke-width="1.0" stroke-linejoin="round" stroke-linecap="butt" stroke-dasharray="4.0,3.0" d="m269.3701 425.8754l0 0c0 -1.8033142 1.461853 -3.2651672 3.2651367 -3.2651672l78.57205 0c0.8659668 0 1.6964722 0.34402466 2.308838 0.95635986c0.6123352 0.6123352 0.95632935 1.4428406 0.95632935 2.3088074l0 13.060242c0 1.8032837 -1.461853 3.2651367 -3.2651672 3.2651367l-78.57205 0c-1.8032837 0 -3.2651367 -1.461853 -3.2651367 -3.2651367z" fill-rule="evenodd"/><path fill="#000000" fill-opacity="0.0" d="m387.9685 425.8754l0 0c0 -1.8033142 1.461853 -3.2651672 3.2651672 -3.2651672l78.57202 0c0.8659973 0 1.6965027 0.34402466 2.308838 0.95635986c0.6123352 0.6123352 0.95632935 1.4428406 0.95632935 2.3088074l0 13.060242c0 1.8032837 -1.461853 3.2651367 -3.2651672 3.2651367l-78.57202 0c-1.8033142 0 -3.2651672 -1.461853 -3.2651672 -3.2651367z" fill-rule="evenodd"/><path stroke="#ffffff" stroke-width="1.0" stroke-linejoin="round" stroke-linecap="butt" stroke-dasharray="4.0,3.0" d="m387.9685 425.8754l0 0c0 -1.8033142 1.461853 -3.2651672 3.2651672 -3.2651672l78.57202 0c0.8659973 0 1.6965027 0.34402466 2.308838 0.95635986c0.6123352 0.6123352 0.95632935 1.4428406 0.95632935 2.3088074l0 13.060242c0 1.8032837 -1.461853 3.2651367 -3.2651672 3.2651367l-78.57202 0c-1.8033142 0 -3.2651672 -1.461853 -3.2651672 -3.2651367z" fill-rule="evenodd"/><path fill="#000000" fill-opacity="0.0" d="m506.56693 425.8754l0 0c0 -1.8033142 1.461853 -3.2651672 3.2651672 -3.2651672l78.57202 0c0.8659668 0 1.6964722 0.34402466 2.308838 0.95635986c0.6123047 0.6123352 0.95635986 1.4428406 0.95635986 2.3088074l0 13.060242c0 1.8032837 -1.461853 3.2651367 -3.2651978 3.2651367l-78.57202 0c-1.8033142 0 -3.2651672 -1.461853 -3.2651672 -3.2651367z" fill-rule="evenodd"/><path stroke="#ffffff" stroke-width="1.0" stroke-linejoin="round" stroke-linecap="butt" stroke-dasharray="4.0,3.0" d="m506.56693 425.8754l0 0c0 -1.8033142 1.461853 -3.2651672 3.2651672 -3.2651672l78.57202 0c0.8659668 0 1.6964722 0.34402466 2.308838 0.95635986c0.6123047 0.6123352 0.95635986 1.4428406 0.95635986 2.3088074l0 13.060242c0 1.8032837 -1.461853 3.2651367 -3.2651978 3.2651367l-78.57202 0c-1.8033142 0 -3.2651672 -1.461853 -3.2651672 -3.2651367z" fill-rule="evenodd"/><path fill="#fce5cd" d="m392.7244 494.79666l0 0c0 -2.388916 1.936615 -4.325531 4.3255615 -4.325531l66.93945 0c1.1472168 0 2.2474365 0.455719 3.0586243 1.2669067c0.81118774 0.81121826 1.2669373 1.911438 1.2669373 3.0586243l0 17.301666c0 2.388916 -1.936615 4.3255615 -4.3255615 4.3255615l-66.93945 0c-2.3889465 0 -4.3255615 -1.9366455 -4.3255615 -4.3255615z" fill-rule="evenodd"/><path stroke="#ffffff" stroke-width="1.0" stroke-linejoin="round" stroke-linecap="butt" d="m392.7244 494.79666l0 0c0 -2.388916 1.936615 -4.325531 4.3255615 -4.325531l66.93945 0c1.1472168 0 2.2474365 0.455719 3.0586243 1.2669067c0.81118774 0.81121826 1.2669373 1.911438 1.2669373 3.0586243l0 17.301666c0 2.388916 -1.936615 4.3255615 -4.3255615 4.3255615l-66.93945 0c-2.3889465 0 -4.3255615 -1.9366455 -4.3255615 -4.3255615z" fill-rule="evenodd"/><path fill="#000000" fill-opacity="0.0" d="m311.92126 442.20078l0 61.259857l80.81888 0" fill-rule="evenodd"/><path stroke="#ffffff" stroke-width="2.0" stroke-linejoin="round" stroke-linecap="butt" d="m311.92126 442.20078l0 61.259857l73.96472 0" fill-rule="evenodd"/><path fill="#ffffff" stroke="#ffffff" stroke-width="2.0" stroke-linecap="butt" d="m385.886 503.46063l-2.249176 2.249176l6.179535 -2.249176l-6.179535 -2.249176z" fill-rule="evenodd"/><path fill="#000000" fill-opacity="0.0" d="m549.1181 442.20078l0 61.259857l-80.787384 0" fill-rule="evenodd"/><path stroke="#ffffff" stroke-width="2.0" stroke-linejoin="round" stroke-linecap="butt" d="m549.1181 442.20078l0 61.259857l-73.93323 0" fill-rule="evenodd"/><path fill="#ffffff" stroke="#ffffff" stroke-width="2.0" stroke-linecap="butt" d="m475.18488 503.46063l2.249176 -2.249176l-6.179535 2.249176l6.179535 2.249176z" fill-rule="evenodd"/><path fill="#000000" fill-opacity="0.0" d="m430.51968 442.20078l0 48.283478" fill-rule="evenodd"/><path stroke="#ffffff" stroke-width="2.0" stroke-linejoin="round" stroke-linecap="butt" d="m430.51968 442.20078l0 41.42932" fill-rule="evenodd"/><path fill="#ffffff" stroke="#ffffff" stroke-width="2.0" stroke-linecap="butt" d="m430.51968 483.63007l-2.249176 -2.2491455l2.249176 6.179535l2.249176 -6.179535z" fill-rule="evenodd"/><path fill="#000000" fill-opacity="0.0" d="m311.92126 409.32416l0 13.291321" fill-rule="evenodd"/><path stroke="#ffffff" stroke-width="2.0" stroke-linejoin="round" stroke-linecap="butt" d="m311.92126 409.32416l0 13.291321" fill-rule="evenodd"/><path fill="#000000" fill-opacity="0.0" d="m430.51968 409.32416l0 13.291321" fill-rule="evenodd"/><path stroke="#ffffff" stroke-width="2.0" stroke-linejoin="round" stroke-linecap="butt" d="m430.51968 409.32416l0 13.291321" fill-rule="evenodd"/><path fill="#000000" fill-opacity="0.0" d="m549.1181 409.32416l0 13.291321" fill-rule="evenodd"/><path stroke="#ffffff" stroke-width="2.0" stroke-linejoin="round" stroke-linecap="butt" d="m549.1181 409.32416l0 13.291321" fill-rule="evenodd"/><path fill="#cfe2f3" d="m746.4829 309.23502l0 0c0 -3.2209778 2.611145 -5.832123 5.8321533 -5.832123l34.162537 0c1.5467529 0 3.0301514 0.6144409 4.1239014 1.7081909c1.09375 1.0937195 1.7081909 2.5771484 1.7081909 4.123932l0 23.32785c0 3.2210083 -2.611145 5.8321533 -5.8320923 5.8321533l-34.162537 0l0 0c-3.2210083 0 -5.8321533 -2.611145 -5.8321533 -5.8321533z" fill-rule="evenodd"/><path stroke="#ffffff" stroke-width="1.0" stroke-linejoin="round" stroke-linecap="butt" d="m746.4829 309.23502l0 0c0 -3.2209778 2.611145 -5.832123 5.8321533 -5.832123l34.162537 0c1.5467529 0 3.0301514 0.6144409 4.1239014 1.7081909c1.09375 1.0937195 1.7081909 2.5771484 1.7081909 4.123932l0 23.32785c0 3.2210083 -2.611145 5.8321533 -5.8320923 5.8321533l-34.162537 0l0 0c-3.2210083 0 -5.8321533 -2.611145 -5.8321533 -5.8321533z" fill-rule="evenodd"/><path fill="#fff2cc" d="m661.38055 381.8072l0 0c0 -3.2209778 2.611145 -5.832123 5.8321533 -5.832123l73.43811 0c1.5467529 0 3.0302124 0.6144409 4.1239014 1.7081909c1.09375 1.09375 1.7081909 2.577179 1.7081909 4.123932l0 23.32785c0 3.2210083 -2.611084 5.8321533 -5.8320923 5.8321533l-73.43811 0c-3.2210083 0 -5.8321533 -2.611145 -5.8321533 -5.8321533z" fill-rule="evenodd"/><path stroke="#ffffff" stroke-width="1.0" stroke-linejoin="round" stroke-linecap="butt" d="m661.38055 381.8072l0 0c0 -3.2209778 2.611145 -5.832123 5.8321533 -5.832123l73.43811 0c1.5467529 0 3.0302124 0.6144409 4.1239014 1.7081909c1.09375 1.09375 1.7081909 2.577179 1.7081909 4.123932l0 23.32785c0 3.2210083 -2.611084 5.8321533 -5.8320923 5.8321533l-73.43811 0c-3.2210083 0 -5.8321533 -2.611145 -5.8321533 -5.8321533z" fill-rule="evenodd"/><path fill="#fff2cc" d="m792.3097 381.8072l0 0c0 -3.2209778 2.611145 -5.832123 5.8321533 -5.832123l73.43811 0c1.5467529 0 3.0302124 0.6144409 4.1239014 1.7081909c1.09375 1.09375 1.7081909 2.577179 1.7081909 4.123932l0 23.32785c0 3.2210083 -2.611084 5.8321533 -5.8320923 5.8321533l-73.43811 0c-3.2210083 0 -5.8321533 -2.611145 -5.8321533 -5.8321533z" fill-rule="evenodd"/><path stroke="#ffffff" stroke-width="1.0" stroke-linejoin="round" stroke-linecap="butt" d="m792.3097 381.8072l0 0c0 -3.2209778 2.611145 -5.832123 5.8321533 -5.832123l73.43811 0c1.5467529 0 3.0302124 0.6144409 4.1239014 1.7081909c1.09375 1.09375 1.7081909 2.577179 1.7081909 4.123932l0 23.32785c0 3.2210083 -2.611084 5.8321533 -5.8320923 5.8321533l-73.43811 0c-3.2210083 0 -5.8321533 -2.611145 -5.8321533 -5.8321533z" fill-rule="evenodd"/><path fill="#000000" fill-opacity="0.0" d="m746.4829 320.89896l-42.551147 0l0 55.08661" fill-rule="evenodd"/><path stroke="#ffffff" stroke-width="2.0" stroke-linejoin="round" stroke-linecap="butt" d="m746.4829 320.89896l-42.551147 0l0 43.08661" fill-rule="evenodd"/><path fill="#ffffff" stroke="#ffffff" stroke-width="2.0" stroke-linecap="butt" d="m700.6283 363.98557l3.3034668 9.076202l3.3034668 -9.076202z" fill-rule="evenodd"/><path fill="#000000" fill-opacity="0.0" d="m792.3097 320.89896l42.55121 0l0 55.08661" fill-rule="evenodd"/><path stroke="#ffffff" stroke-width="2.0" stroke-linejoin="round" stroke-linecap="butt" d="m792.3097 320.89896l42.55121 0l0 43.08661" fill-rule="evenodd"/><path fill="#ffffff" stroke="#ffffff" stroke-width="2.0" stroke-linecap="butt" d="m831.55743 363.98557l3.3034668 9.076202l3.3034668 -9.076202z" fill-rule="evenodd"/><path fill="#000000" fill-opacity="0.0" d="m661.38055 427.51843l0 0c0 -1.8032837 1.4619141 -3.2651367 3.2651978 -3.2651367l78.57202 0c0.8659668 0 1.6964722 0.34399414 2.308838 0.95632935c0.6123047 0.6123352 0.9562988 1.4428406 0.9562988 2.3088074l0 13.060242c0 1.8032837 -1.461853 3.2651672 -3.2651367 3.2651672l-78.57202 0c-1.8032837 0 -3.2651978 -1.4618835 -3.2651978 -3.2651672z" fill-rule="evenodd"/><path stroke="#ffffff" stroke-width="1.0" stroke-linejoin="round" stroke-linecap="butt" stroke-dasharray="4.0,3.0" d="m661.38055 427.51843l0 0c0 -1.8032837 1.4619141 -3.2651367 3.2651978 -3.2651367l78.57202 0c0.8659668 0 1.6964722 0.34399414 2.308838 0.95632935c0.6123047 0.6123352 0.9562988 1.4428406 0.9562988 2.3088074l0 13.060242c0 1.8032837 -1.461853 3.2651672 -3.2651367 3.2651672l-78.57202 0c-1.8032837 0 -3.2651978 -1.4618835 -3.2651978 -3.2651672z" fill-rule="evenodd"/><path fill="#000000" fill-opacity="0.0" d="m792.3097 427.51843l0 0c0 -1.8032837 1.461853 -3.2651367 3.2651978 -3.2651367l78.57202 0c0.8659668 0 1.6964722 0.34399414 2.308838 0.95632935c0.6123047 0.6123352 0.9562988 1.4428406 0.9562988 2.3088074l0 13.060242c0 1.8032837 -1.461853 3.2651672 -3.2651367 3.2651672l-78.57202 0c-1.8033447 0 -3.2651978 -1.4618835 -3.2651978 -3.2651672z" fill-rule="evenodd"/><path stroke="#ffffff" stroke-width="1.0" stroke-linejoin="round" stroke-linecap="butt" stroke-dasharray="4.0,3.0" d="m792.3097 427.51843l0 0c0 -1.8032837 1.461853 -3.2651367 3.2651978 -3.2651367l78.57202 0c0.8659668 0 1.6964722 0.34399414 2.308838 0.95632935c0.6123047 0.6123352 0.9562988 1.4428406 0.9562988 2.3088074l0 13.060242c0 1.8032837 -1.461853 3.2651672 -3.2651367 3.2651672l-78.57202 0c-1.8033447 0 -3.2651978 -1.4618835 -3.2651978 -3.2651672z" fill-rule="evenodd"/><path fill="#fce5cd" d="m731.6011 494.7888l0 0c0 -2.388916 1.9365845 -4.325531 4.3255005 -4.325531l66.93945 0c1.1472168 0 2.2474365 0.455719 3.0586548 1.2669067c0.81121826 0.81121826 1.2669067 1.911438 1.2669067 3.0586243l0 17.301666c0 2.388916 -1.9365845 4.3255615 -4.3255615 4.3255615l-66.93945 0c-2.388916 0 -4.3255005 -1.9366455 -4.3255005 -4.3255615z" fill-rule="evenodd"/><path stroke="#ffffff" stroke-width="1.0" stroke-linejoin="round" stroke-linecap="butt" d="m731.6011 494.7888l0 0c0 -2.388916 1.9365845 -4.325531 4.3255005 -4.325531l66.93945 0c1.1472168 0 2.2474365 0.455719 3.0586548 1.2669067c0.81121826 0.81121826 1.2669067 1.911438 1.2669067 3.0586243l0 17.301666c0 2.388916 -1.9365845 4.3255615 -4.3255615 4.3255615l-66.93945 0c-2.388916 0 -4.3255005 -1.9366455 -4.3255005 -4.3255615z" fill-rule="evenodd"/><path fill="#000000" fill-opacity="0.0" d="m703.93176 443.84384l0 59.590546l27.685059 0" fill-rule="evenodd"/><path stroke="#ffffff" stroke-width="2.0" stroke-linejoin="round" stroke-linecap="butt" d="m703.93176 443.84384l0 59.590546l20.830872 0" fill-rule="evenodd"/><path fill="#ffffff" stroke="#ffffff" stroke-width="2.0" stroke-linecap="butt" d="m724.76263 503.4344l-2.2492065 2.249176l6.1795654 -2.249176l-6.1795654 -2.249176z" fill-rule="evenodd"/><path fill="#000000" fill-opacity="0.0" d="m834.8609 443.84384l0 59.590546l-27.653564 0" fill-rule="evenodd"/><path stroke="#ffffff" stroke-width="2.0" stroke-linejoin="round" stroke-linecap="butt" d="m834.8609 443.84384l0 59.590546l-20.799377 0" fill-rule="evenodd"/><path fill="#ffffff" stroke="#ffffff" stroke-width="2.0" stroke-linecap="butt" d="m814.0615 503.4344l2.2491455 -2.249176l-6.1795044 2.249176l6.1795044 2.249176z" fill-rule="evenodd"/><path fill="#000000" fill-opacity="0.0" d="m703.93176 410.9672l0 13.291351" fill-rule="evenodd"/><path stroke="#ffffff" stroke-width="2.0" stroke-linejoin="round" stroke-linecap="butt" d="m703.93176 410.9672l0 13.291351" fill-rule="evenodd"/><path fill="#000000" fill-opacity="0.0" d="m834.8609 410.9672l0 13.291351" fill-rule="evenodd"/><path stroke="#ffffff" stroke-width="2.0" stroke-linejoin="round" stroke-linecap="butt" d="m834.8609 410.9672l0 13.291351" fill-rule="evenodd"/><path fill="#000000" fill-opacity="0.0" d="m468.31497 208.97769l301.07083 0l0 94.4252" fill-rule="evenodd"/><path stroke="#ffffff" stroke-width="2.0" stroke-linejoin="round" stroke-linecap="butt" d="m468.31497 208.97769l301.07083 0l0 82.4252" fill-rule="evenodd"/><path fill="#ffffff" stroke="#ffffff" stroke-width="2.0" stroke-linecap="butt" d="m766.08234 291.4029l3.3034668 9.076202l3.3034668 -9.076202z" fill-rule="evenodd"/><path fill="#d9d2e9" d="m591.6693 576.6051l0 0c0 -2.388977 1.9365845 -4.3255615 4.3255005 -4.3255615l66.939514 0c1.1471558 0 2.2473755 0.45568848 3.0585938 1.2669067c0.81121826 0.81121826 1.2669067 1.911438 1.2669067 3.0586548l0 17.301636c0 2.388916 -1.9365845 4.3255615 -4.3255005 4.3255615l-66.939514 0c-2.388916 0 -4.3255005 -1.9366455 -4.3255005 -4.3255615z" fill-rule="evenodd"/><path stroke="#ffffff" stroke-width="1.0" stroke-linejoin="round" stroke-linecap="butt" d="m591.6693 576.6051l0 0c0 -2.388977 1.9365845 -4.3255615 4.3255005 -4.3255615l66.939514 0c1.1471558 0 2.2473755 0.45568848 3.0585938 1.2669067c0.81121826 0.81121826 1.2669067 1.911438 1.2669067 3.0586548l0 17.301636c0 2.388916 -1.9365845 4.3255615 -4.3255005 4.3255615l-66.939514 0c-2.388916 0 -4.3255005 -1.9366455 -4.3255005 -4.3255615z" fill-rule="evenodd"/><path fill="#000000" fill-opacity="0.0" d="m430.51968 516.4239l0 68.81891l161.16537 0" fill-rule="evenodd"/><path stroke="#ffffff" stroke-width="2.0" stroke-linejoin="round" stroke-linecap="butt" d="m430.51968 516.4239l0 68.81891l149.16537 0" fill-rule="evenodd"/><path fill="#ffffff" stroke="#ffffff" stroke-width="2.0" stroke-linecap="butt" d="m579.68506 588.54626l9.076172 -3.3034668l-9.076172 -3.3034668z" fill-rule="evenodd"/><path fill="#000000" fill-opacity="0.0" d="m769.3963 516.416l0 68.8504l-102.14172 0" fill-rule="evenodd"/><path stroke="#ffffff" stroke-width="2.0" stroke-linejoin="round" stroke-linecap="butt" d="m769.3963 516.416l0 68.8504l-90.14172 0" fill-rule="evenodd"/><path fill="#ffffff" stroke="#ffffff" stroke-width="2.0" stroke-linecap="butt" d="m679.2546 581.96295l-9.076172 3.3034668l9.076172 3.3034668z" fill-rule="evenodd"/></g></svg>