<svg version="1.1" viewBox="0.0 0.0 960.0 720.0" fill="none" stroke="none" stroke-linecap="square" stroke-miterlimit="10" xmlns:xlink="http://www.w3.org/1999/xlink" xmlns="http://www.w3.org/2000/svg"><clipPath id="p.0"><path d="m0 0l960.0 0l0 720.0l-960.0 0l0 -720.0z" clip-rule="nonzero"/></clipPath><g clip-path="url(#p.0)"><path fill="#000000" fill-opacity="0.0" d="m0 0l960.0 0l0 720.0l-960.0 0z" fill-rule="evenodd"/><path fill="#000000" fill-opacity="0.0" d="m247.66273 580.2782l102.866135 1.2283936" fill-rule="evenodd"/><path stroke="#d9d9d9" stroke-width="2.0" stroke-linejoin="round" stroke-linecap="butt" d="m247.66273 580.2782l96.01247 1.1464844" fill-rule="evenodd"/><path fill="#d9d9d9" stroke="#d9d9d9" stroke-width="2.0" stroke-linecap="butt" d="m343.6752 581.42474l-2.275879 2.222107l6.205963 -2.175171l-6.152252 -2.322815z" fill-rule="evenodd"/><path fill="#000000" fill-opacity="0.0" d="m200.42126 461.8504l150.11023 -1.8897705" fill-rule="evenodd"/><path stroke="#93c47d" stroke-width="2.0" stroke-linejoin="round" stroke-linecap="butt" d="m200.42126 461.8504l143.25659 -1.8034973" fill-rule="evenodd"/><path fill="#93c47d" stroke="#93c47d" stroke-width="2.0" stroke-linecap="butt" d="m343.67786 460.0469l-2.2206726 2.2773132l6.1507263 -2.3267822l-6.2073364 -2.1712036z" fill-rule="evenodd"/><path fill="#000000" fill-opacity="0.0" d="m200.42126 344.09448l150.11023 0.661438" fill-rule="evenodd"/><path stroke="#ffd966" stroke-width="2.0" stroke-linejoin="round" stroke-linecap="butt" d="m200.42126 344.09448l143.25613 0.6312256" fill-rule="evenodd"/><path fill="#ffd966" stroke="#ffd966" stroke-width="2.0" stroke-linecap="butt" d="m343.6774 344.7257l-2.2590637 2.2392273l6.189392 -2.2219238l-6.169586 -2.2763672z" fill-rule="evenodd"/><path fill="#000000" fill-opacity="0.0" d="m200.42126 226.98819l150.11023 1.291336" fill-rule="evenodd"/><path stroke="#f6b26b" stroke-width="2.0" stroke-linejoin="round" stroke-linecap="butt" d="m200.42126 226.98819l143.25632 1.2323914" fill-rule="evenodd"/><path fill="#f6b26b" stroke="#f6b26b" stroke-width="2.0" stroke-linecap="butt" d="m343.67758 228.22057l-2.2684326 2.2297363l6.198639 -2.1959229l-6.1599426 -2.302246z" fill-rule="evenodd"/><path fill="#000000" fill-opacity="0.0" d="m200.42126 109.884514l150.11023 1.8897629" fill-rule="evenodd"/><path stroke="#e06666" stroke-width="2.0" stroke-linejoin="round" stroke-linecap="butt" d="m200.42126 109.884514l143.25659 1.803482" fill-rule="evenodd"/><path fill="#e06666" stroke="#e06666" stroke-width="2.0" stroke-linecap="butt" d="m343.67786 111.687996l-2.2772827 2.2206802l6.2073364 -2.1712036l-6.1507263 -2.3267746z" fill-rule="evenodd"/><path fill="#000000" fill-opacity="0.0" d="m122.919945 462.5118l65.70078 -0.6614075" fill-rule="evenodd"/><path stroke="#93c47d" stroke-width="2.0" stroke-linejoin="round" stroke-linecap="butt" d="m122.919945 462.5118l58.846977 -0.59243774" fill-rule="evenodd"/><path fill="#93c47d" stroke="#93c47d" stroke-width="2.0" stroke-linecap="butt" d="m181.7669 461.9194l-2.22641 2.271698l6.1565857 -2.3112793l-6.201874 -2.1868286z" fill-rule="evenodd"/><path fill="#000000" fill-opacity="0.0" d="m122.919945 344.75067l65.70078 -0.661438" fill-rule="evenodd"/><path stroke="#ffd966" stroke-width="2.0" stroke-linejoin="round" stroke-linecap="butt" d="m122.919945 344.75067l58.846977 -0.59243774" fill-rule="evenodd"/><path fill="#ffd966" stroke="#ffd966" stroke-width="2.0" stroke-linecap="butt" d="m181.7669 344.15823l-2.22641 2.271698l6.1565857 -2.3112488l-6.201874 -2.1868591z" fill-rule="evenodd"/><path fill="#000000" fill-opacity="0.0" d="m122.919945 226.9895l65.70078 0" fill-rule="evenodd"/><path stroke="#f6b26b" stroke-width="2.0" stroke-linejoin="round" stroke-linecap="butt" d="m122.919945 226.9895l58.846626 0" fill-rule="evenodd"/><path fill="#f6b26b" stroke="#f6b26b" stroke-width="2.0" stroke-linecap="butt" d="m181.76656 226.9895l-2.2491608 2.2491608l6.179535 -2.2491608l-6.179535 -2.2491608z" fill-rule="evenodd"/><path fill="#000000" fill-opacity="0.0" d="m122.919945 109.22835l65.70078 0.6614151" fill-rule="evenodd"/><path stroke="#e06666" stroke-width="2.0" stroke-linejoin="round" stroke-linecap="butt" d="m122.919945 109.22835l58.846977 0.59241486" fill-rule="evenodd"/><path fill="#e06666" stroke="#e06666" stroke-width="2.0" stroke-linecap="butt" d="m181.7669 109.82076l-2.271698 2.2264175l6.201874 -2.1868515l-6.1565857 -2.3112564z" fill-rule="evenodd"/><path fill="#000000" fill-opacity="0.0" d="m250.97769 60.863724l0 0c0 -5.6882133 4.611206 -10.299419 10.299408 -10.299419l41.19644 0l0 0c2.7315674 0 5.351288 1.0851135 7.2828064 3.0166283c1.9315186 1.9315186 3.016632 4.551216 3.016632 7.282791l0 571.11774c0 5.6881714 -4.611206 10.299377 -10.299438 10.299377l-41.19644 0c-5.688202 0 -10.299408 -4.611206 -10.299408 -10.299377z" fill-rule="evenodd"/><path stroke="#efefef" stroke-width="1.0" stroke-linejoin="round" stroke-linecap="butt" stroke-dasharray="4.0,3.0" d="m250.97769 60.863724l0 0c0 -5.6882133 4.611206 -10.299419 10.299408 -10.299419l41.19644 0l0 0c2.7315674 0 5.351288 1.0851135 7.2828064 3.0166283c1.9315186 1.9315186 3.016632 4.551216 3.016632 7.282791l0 571.11774c0 5.6881714 -4.611206 10.299377 -10.299438 10.299377l-41.19644 0c-5.688202 0 -10.299408 -4.611206 -10.299408 -10.299377z" fill-rule="evenodd"/><path fill="#e06666" d="m109.502625 62.677166l0 0c0 -3.7050934 3.0035706 -6.708664 6.708664 -6.708664l0 0l0 0c1.7792435 0 3.4856186 0.7068062 4.7437363 1.9649239c1.2581177 1.2581177 1.96492 2.9644928 1.96492 4.74374l0 93.102356c0 3.7050934 -3.0035706 6.708664 -6.7086563 6.708664l0 0l0 0c-3.7050934 0 -6.708664 -3.0035706 -6.708664 -6.708664z" fill-rule="evenodd"/><path stroke="#efefef" stroke-width="2.0" stroke-linejoin="round" stroke-linecap="butt" d="m109.502625 62.677166l0 0c0 -3.7050934 3.0035706 -6.708664 6.708664 -6.708664l0 0l0 0c1.7792435 0 3.4856186 0.7068062 4.7437363 1.9649239c1.2581177 1.2581177 1.96492 2.9644928 1.96492 4.74374l0 93.102356c0 3.7050934 -3.0035706 6.708664 -6.7086563 6.708664l0 0l0 0c-3.7050934 0 -6.708664 -3.0035706 -6.708664 -6.708664z" fill-rule="evenodd"/><path fill="#e06666" d="m127.94357 71.10236l0 0c0 -3.7050934 3.0035706 -6.708664 6.708664 -6.708664l0 0l0 0c1.7792358 0 3.485611 0.70680237 4.7437286 1.96492c1.2581177 1.2581177 1.96492 2.9644928 1.96492 4.743744l0 76.25196c0 3.7050934 -3.0035706 6.708664 -6.7086487 6.708664l0 0l0 0c-3.7050934 0 -6.708664 -3.0035706 -6.708664 -6.708664z" fill-rule="evenodd"/><path stroke="#efefef" stroke-width="2.0" stroke-linejoin="round" stroke-linecap="butt" d="m127.94357 71.10236l0 0c0 -3.7050934 3.0035706 -6.708664 6.708664 -6.708664l0 0l0 0c1.7792358 0 3.485611 0.70680237 4.7437286 1.96492c1.2581177 1.2581177 1.96492 2.9644928 1.96492 4.743744l0 76.25196c0 3.7050934 -3.0035706 6.708664 -6.7086487 6.708664l0 0l0 0c-3.7050934 0 -6.708664 -3.0035706 -6.708664 -6.708664z" fill-rule="evenodd"/><path fill="#e06666" d="m146.38452 81.40157l0 0c0 -3.7050934 3.0035706 -6.7086563 6.7086487 -6.7086563l0 0l0 0c1.7792511 0 3.4856262 0.70680237 4.743744 1.96492c1.2581177 1.2581177 1.96492 2.9644928 1.96492 4.7437363l0 55.65354c0 3.7050934 -3.0035706 6.708664 -6.708664 6.708664l0 0l0 0c-3.7050781 0 -6.7086487 -3.0035706 -6.7086487 -6.708664z" fill-rule="evenodd"/><path stroke="#efefef" stroke-width="2.0" stroke-linejoin="round" stroke-linecap="butt" d="m146.38452 81.40157l0 0c0 -3.7050934 3.0035706 -6.7086563 6.7086487 -6.7086563l0 0l0 0c1.7792511 0 3.4856262 0.70680237 4.743744 1.96492c1.2581177 1.2581177 1.96492 2.9644928 1.96492 4.7437363l0 55.65354c0 3.7050934 -3.0035706 6.708664 -6.708664 6.708664l0 0l0 0c-3.7050781 0 -6.7086487 -3.0035706 -6.7086487 -6.708664z" fill-rule="evenodd"/><path fill="#f6b26b" d="m109.502625 180.43832l0 0c0 -3.7050934 3.0035706 -6.708664 6.708664 -6.708664l0 0l0 0c1.7792435 0 3.4856186 0.70680237 4.7437363 1.96492c1.2581177 1.2581177 1.96492 2.9644928 1.96492 4.743744l0 93.102356c0 3.7051086 -3.0035706 6.7086487 -6.7086563 6.7086487l0 0l0 0c-3.7050934 0 -6.708664 -3.00354 -6.708664 -6.7086487z" fill-rule="evenodd"/><path stroke="#efefef" stroke-width="2.0" stroke-linejoin="round" stroke-linecap="butt" d="m109.502625 180.43832l0 0c0 -3.7050934 3.0035706 -6.708664 6.708664 -6.708664l0 0l0 0c1.7792435 0 3.4856186 0.70680237 4.7437363 1.96492c1.2581177 1.2581177 1.96492 2.9644928 1.96492 4.743744l0 93.102356c0 3.7051086 -3.0035706 6.7086487 -6.7086563 6.7086487l0 0l0 0c-3.7050934 0 -6.708664 -3.00354 -6.708664 -6.7086487z" fill-rule="evenodd"/><path fill="#f6b26b" d="m127.94357 188.86351l0 0c0 -3.7050781 3.0035706 -6.7086487 6.708664 -6.7086487l0 0l0 0c1.7792358 0 3.485611 0.70680237 4.7437286 1.96492c1.2581177 1.2581177 1.96492 2.9644928 1.96492 4.7437286l0 76.25197c0 3.7051086 -3.0035706 6.708679 -6.7086487 6.708679l0 0l0 0c-3.7050934 0 -6.708664 -3.0035706 -6.708664 -6.708679z" fill-rule="evenodd"/><path stroke="#efefef" stroke-width="2.0" stroke-linejoin="round" stroke-linecap="butt" d="m127.94357 188.86351l0 0c0 -3.7050781 3.0035706 -6.7086487 6.708664 -6.7086487l0 0l0 0c1.7792358 0 3.485611 0.70680237 4.7437286 1.96492c1.2581177 1.2581177 1.96492 2.9644928 1.96492 4.7437286l0 76.25197c0 3.7051086 -3.0035706 6.708679 -6.7086487 6.708679l0 0l0 0c-3.7050934 0 -6.708664 -3.0035706 -6.708664 -6.708679z" fill-rule="evenodd"/><path fill="#f6b26b" d="m146.38452 199.16273l0 0c0 -3.7050934 3.0035706 -6.708664 6.7086487 -6.708664l0 0l0 0c1.7792511 0 3.4856262 0.70680237 4.743744 1.96492c1.2581177 1.2581177 1.96492 2.9644928 1.96492 4.743744l0 55.653534c0 3.7050934 -3.0035706 6.708664 -6.708664 6.708664l0 0l0 0c-3.7050781 0 -6.7086487 -3.0035706 -6.7086487 -6.708664z" fill-rule="evenodd"/><path stroke="#efefef" stroke-width="2.0" stroke-linejoin="round" stroke-linecap="butt" d="m146.38452 199.16273l0 0c0 -3.7050934 3.0035706 -6.708664 6.7086487 -6.708664l0 0l0 0c1.7792511 0 3.4856262 0.70680237 4.743744 1.96492c1.2581177 1.2581177 1.96492 2.9644928 1.96492 4.743744l0 55.653534c0 3.7050934 -3.0035706 6.708664 -6.708664 6.708664l0 0l0 0c-3.7050781 0 -6.7086487 -3.0035706 -6.7086487 -6.708664z" fill-rule="evenodd"/><path fill="#ffd966" d="m109.502625 298.19946l0 0c0 -3.7050781 3.0035706 -6.7086487 6.708664 -6.7086487l0 0l0 0c1.7792435 0 3.4856186 0.7068176 4.7437363 1.9649353c1.2581177 1.2581177 1.96492 2.9644775 1.96492 4.7437134l0 93.10239c0 3.7050781 -3.0035706 6.7086487 -6.7086563 6.7086487l0 0l0 0c-3.7050934 0 -6.708664 -3.0035706 -6.708664 -6.7086487z" fill-rule="evenodd"/><path stroke="#efefef" stroke-width="2.0" stroke-linejoin="round" stroke-linecap="butt" d="m109.502625 298.19946l0 0c0 -3.7050781 3.0035706 -6.7086487 6.708664 -6.7086487l0 0l0 0c1.7792435 0 3.4856186 0.7068176 4.7437363 1.9649353c1.2581177 1.2581177 1.96492 2.9644775 1.96492 4.7437134l0 93.10239c0 3.7050781 -3.0035706 6.7086487 -6.7086563 6.7086487l0 0l0 0c-3.7050934 0 -6.708664 -3.0035706 -6.708664 -6.7086487z" fill-rule="evenodd"/><path fill="#ffd966" d="m127.94357 306.62466l0 0c0 -3.7050781 3.0035706 -6.7086487 6.708664 -6.7086487l0 0l0 0c1.7792358 0 3.485611 0.7067871 4.7437286 1.9649048c1.2581177 1.2581177 1.96492 2.964508 1.96492 4.743744l0 76.25198c0 3.7050781 -3.0035706 6.7086487 -6.7086487 6.7086487l0 0l0 0c-3.7050934 0 -6.708664 -3.0035706 -6.708664 -6.7086487z" fill-rule="evenodd"/><path stroke="#efefef" stroke-width="2.0" stroke-linejoin="round" stroke-linecap="butt" d="m127.94357 306.62466l0 0c0 -3.7050781 3.0035706 -6.7086487 6.708664 -6.7086487l0 0l0 0c1.7792358 0 3.485611 0.7067871 4.7437286 1.9649048c1.2581177 1.2581177 1.96492 2.964508 1.96492 4.743744l0 76.25198c0 3.7050781 -3.0035706 6.7086487 -6.7086487 6.7086487l0 0l0 0c-3.7050934 0 -6.708664 -3.0035706 -6.708664 -6.7086487z" fill-rule="evenodd"/><path fill="#ffd966" d="m146.38452 316.9239l0 0c0 -3.7051086 3.0035706 -6.708679 6.7086487 -6.708679l0 0l0 0c1.7792511 0 3.4856262 0.7068176 4.743744 1.9649353c1.2581177 1.2581177 1.96492 2.9644775 1.96492 4.743744l0 55.653534c0 3.7051086 -3.0035706 6.708679 -6.708664 6.708679l0 0l0 0c-3.7050781 0 -6.7086487 -3.0035706 -6.7086487 -6.708679z" fill-rule="evenodd"/><path stroke="#efefef" stroke-width="2.0" stroke-linejoin="round" stroke-linecap="butt" d="m146.38452 316.9239l0 0c0 -3.7051086 3.0035706 -6.708679 6.7086487 -6.708679l0 0l0 0c1.7792511 0 3.4856262 0.7068176 4.743744 1.9649353c1.2581177 1.2581177 1.96492 2.9644775 1.96492 4.743744l0 55.653534c0 3.7051086 -3.0035706 6.708679 -6.708664 6.708679l0 0l0 0c-3.7050781 0 -6.7086487 -3.0035706 -6.7086487 -6.708679z" fill-rule="evenodd"/><path fill="#93c47d" d="m109.502625 415.96063l0 0c0 -3.7051086 3.0035706 -6.7086487 6.708664 -6.7086487l0 0l0 0c1.7792435 0 3.4856186 0.7067871 4.7437363 1.9649048c1.2581177 1.2581177 1.96492 2.964508 1.96492 4.743744l0 93.102356c0 3.7050781 -3.0035706 6.708679 -6.7086563 6.708679l0 0l0 0c-3.7050934 0 -6.708664 -3.003601 -6.708664 -6.708679z" fill-rule="evenodd"/><path stroke="#efefef" stroke-width="2.0" stroke-linejoin="round" stroke-linecap="butt" d="m109.502625 415.96063l0 0c0 -3.7051086 3.0035706 -6.7086487 6.708664 -6.7086487l0 0l0 0c1.7792435 0 3.4856186 0.7067871 4.7437363 1.9649048c1.2581177 1.2581177 1.96492 2.964508 1.96492 4.743744l0 93.102356c0 3.7050781 -3.0035706 6.708679 -6.7086563 6.708679l0 0l0 0c-3.7050934 0 -6.708664 -3.003601 -6.708664 -6.708679z" fill-rule="evenodd"/><path fill="#93c47d" d="m127.94357 424.38583l0 0c0 -3.7051086 3.0035706 -6.708679 6.708664 -6.708679l0 0l0 0c1.7792358 0 3.485611 0.7068176 4.7437286 1.9649353c1.2581177 1.2581177 1.96492 2.9644775 1.96492 4.743744l0 76.25195c0 3.7051086 -3.0035706 6.708679 -6.7086487 6.708679l0 0l0 0c-3.7050934 0 -6.708664 -3.0035706 -6.708664 -6.708679z" fill-rule="evenodd"/><path stroke="#efefef" stroke-width="2.0" stroke-linejoin="round" stroke-linecap="butt" d="m127.94357 424.38583l0 0c0 -3.7051086 3.0035706 -6.708679 6.708664 -6.708679l0 0l0 0c1.7792358 0 3.485611 0.7068176 4.7437286 1.9649353c1.2581177 1.2581177 1.96492 2.9644775 1.96492 4.743744l0 76.25195c0 3.7051086 -3.0035706 6.708679 -6.7086487 6.708679l0 0l0 0c-3.7050934 0 -6.708664 -3.0035706 -6.708664 -6.708679z" fill-rule="evenodd"/><path fill="#93c47d" d="m146.38452 434.68503l0 0c0 -3.7050781 3.0035706 -6.7086487 6.7086487 -6.7086487l0 0l0 0c1.7792511 0 3.4856262 0.7067871 4.743744 1.9649048c1.2581177 1.2581482 1.96492 2.964508 1.96492 4.743744l0 55.653564c0 3.7050781 -3.0035706 6.7086487 -6.708664 6.7086487l0 0l0 0c-3.7050781 0 -6.7086487 -3.0035706 -6.7086487 -6.7086487z" fill-rule="evenodd"/><path stroke="#efefef" stroke-width="2.0" stroke-linejoin="round" stroke-linecap="butt" d="m146.38452 434.68503l0 0c0 -3.7050781 3.0035706 -6.7086487 6.7086487 -6.7086487l0 0l0 0c1.7792511 0 3.4856262 0.7067871 4.743744 1.9649048c1.2581177 1.2581482 1.96492 2.964508 1.96492 4.743744l0 55.653564c0 3.7050781 -3.0035706 6.7086487 -6.708664 6.7086487l0 0l0 0c-3.7050781 0 -6.7086487 -3.0035706 -6.7086487 -6.7086487z" fill-rule="evenodd"/><path fill="#e06666" d="m307.02493 62.677166l0 0c0 -3.7050934 -3.0035706 -6.708664 -6.7086487 -6.708664l0 0l0 0c-1.7792664 0 -3.4856262 0.7068062 -4.743744 1.9649239c-1.2581177 1.2581177 -1.9649353 2.9644928 -1.9649353 4.74374l0 93.102356c0 3.7050934 3.0035706 6.708664 6.708679 6.708664l0 0l0 0c3.7050781 0 6.7086487 -3.0035706 6.7086487 -6.708664z" fill-rule="evenodd"/><path stroke="#efefef" stroke-width="2.0" stroke-linejoin="round" stroke-linecap="butt" d="m307.02493 62.677166l0 0c0 -3.7050934 -3.0035706 -6.708664 -6.7086487 -6.708664l0 0l0 0c-1.7792664 0 -3.4856262 0.7068062 -4.743744 1.9649239c-1.2581177 1.2581177 -1.9649353 2.9644928 -1.9649353 4.74374l0 93.102356c0 3.7050934 3.0035706 6.708664 6.708679 6.708664l0 0l0 0c3.7050781 0 6.7086487 -3.0035706 6.7086487 -6.708664z" fill-rule="evenodd"/><path fill="#e06666" d="m288.58398 71.10236l0 0c0 -3.7050934 -3.0035706 -6.708664 -6.7086487 -6.708664l0 0l0 0c-1.7792664 0 -3.4856262 0.70680237 -4.743744 1.96492c-1.2581177 1.2581177 -1.9649353 2.9644928 -1.9649353 4.743744l0 76.25196c0 3.7050934 3.0035706 6.708664 6.708679 6.708664l0 0l0 0c3.7050781 0 6.7086487 -3.0035706 6.7086487 -6.708664z" fill-rule="evenodd"/><path stroke="#efefef" stroke-width="2.0" stroke-linejoin="round" stroke-linecap="butt" d="m288.58398 71.10236l0 0c0 -3.7050934 -3.0035706 -6.708664 -6.7086487 -6.708664l0 0l0 0c-1.7792664 0 -3.4856262 0.70680237 -4.743744 1.96492c-1.2581177 1.2581177 -1.9649353 2.9644928 -1.9649353 4.743744l0 76.25196c0 3.7050934 3.0035706 6.708664 6.708679 6.708664l0 0l0 0c3.7050781 0 6.7086487 -3.0035706 6.7086487 -6.708664z" fill-rule="evenodd"/><path fill="#e06666" d="m270.14304 81.40157l0 0c0 -3.7050934 -3.0035706 -6.7086563 -6.7086487 -6.7086563l0 0l0 0c-1.7792664 0 -3.4856262 0.70680237 -4.743744 1.96492c-1.2581177 1.2581177 -1.9649353 2.9644928 -1.9649353 4.7437363l0 55.65354c0 3.7050934 3.0035706 6.708664 6.708679 6.708664l0 0l0 0c3.7050781 0 6.7086487 -3.0035706 6.7086487 -6.708664z" fill-rule="evenodd"/><path stroke="#efefef" stroke-width="2.0" stroke-linejoin="round" stroke-linecap="butt" d="m270.14304 81.40157l0 0c0 -3.7050934 -3.0035706 -6.7086563 -6.7086487 -6.7086563l0 0l0 0c-1.7792664 0 -3.4856262 0.70680237 -4.743744 1.96492c-1.2581177 1.2581177 -1.9649353 2.9644928 -1.9649353 4.7437363l0 55.65354c0 3.7050934 3.0035706 6.708664 6.708679 6.708664l0 0l0 0c3.7050781 0 6.7086487 -3.0035706 6.7086487 -6.708664z" fill-rule="evenodd"/><path fill="#f6b26b" d="m307.02493 180.43832l0 0c0 -3.7050934 -3.0035706 -6.708664 -6.7086487 -6.708664l0 0l0 0c-1.7792664 0 -3.4856262 0.70680237 -4.743744 1.96492c-1.2581177 1.2581177 -1.9649353 2.9644928 -1.9649353 4.743744l0 93.102356c0 3.7051086 3.0035706 6.7086487 6.708679 6.7086487l0 0l0 0c3.7050781 0 6.7086487 -3.00354 6.7086487 -6.7086487z" fill-rule="evenodd"/><path stroke="#efefef" stroke-width="2.0" stroke-linejoin="round" stroke-linecap="butt" d="m307.02493 180.43832l0 0c0 -3.7050934 -3.0035706 -6.708664 -6.7086487 -6.708664l0 0l0 0c-1.7792664 0 -3.4856262 0.70680237 -4.743744 1.96492c-1.2581177 1.2581177 -1.9649353 2.9644928 -1.9649353 4.743744l0 93.102356c0 3.7051086 3.0035706 6.7086487 6.708679 6.7086487l0 0l0 0c3.7050781 0 6.7086487 -3.00354 6.7086487 -6.7086487z" fill-rule="evenodd"/><path fill="#f6b26b" d="m288.58398 188.86351l0 0c0 -3.7050781 -3.0035706 -6.7086487 -6.7086487 -6.7086487l0 0l0 0c-1.7792664 0 -3.4856262 0.70680237 -4.743744 1.96492c-1.2581177 1.2581177 -1.9649353 2.9644928 -1.9649353 4.7437286l0 76.25197c0 3.7051086 3.0035706 6.708679 6.708679 6.708679l0 0l0 0c3.7050781 0 6.7086487 -3.0035706 6.7086487 -6.708679z" fill-rule="evenodd"/><path stroke="#efefef" stroke-width="2.0" stroke-linejoin="round" stroke-linecap="butt" d="m288.58398 188.86351l0 0c0 -3.7050781 -3.0035706 -6.7086487 -6.7086487 -6.7086487l0 0l0 0c-1.7792664 0 -3.4856262 0.70680237 -4.743744 1.96492c-1.2581177 1.2581177 -1.9649353 2.9644928 -1.9649353 4.7437286l0 76.25197c0 3.7051086 3.0035706 6.708679 6.708679 6.708679l0 0l0 0c3.7050781 0 6.7086487 -3.0035706 6.7086487 -6.708679z" fill-rule="evenodd"/><path fill="#f6b26b" d="m270.14304 199.16273l0 0c0 -3.7050934 -3.0035706 -6.708664 -6.7086487 -6.708664l0 0l0 0c-1.7792664 0 -3.4856262 0.70680237 -4.743744 1.96492c-1.2581177 1.2581177 -1.9649353 2.9644928 -1.9649353 4.743744l0 55.653534c0 3.7050934 3.0035706 6.708664 6.708679 6.708664l0 0l0 0c3.7050781 0 6.7086487 -3.0035706 6.7086487 -6.708664z" fill-rule="evenodd"/><path stroke="#efefef" stroke-width="2.0" stroke-linejoin="round" stroke-linecap="butt" d="m270.14304 199.16273l0 0c0 -3.7050934 -3.0035706 -6.708664 -6.7086487 -6.708664l0 0l0 0c-1.7792664 0 -3.4856262 0.70680237 -4.743744 1.96492c-1.2581177 1.2581177 -1.9649353 2.9644928 -1.9649353 4.743744l0 55.653534c0 3.7050934 3.0035706 6.708664 6.708679 6.708664l0 0l0 0c3.7050781 0 6.7086487 -3.0035706 6.7086487 -6.708664z" fill-rule="evenodd"/><path fill="#ffd966" d="m307.02493 298.19946l0 0c0 -3.7050781 -3.0035706 -6.7086487 -6.7086487 -6.7086487l0 0l0 0c-1.7792664 0 -3.4856262 0.7068176 -4.743744 1.9649353c-1.2581177 1.2581177 -1.9649353 2.9644775 -1.9649353 4.7437134l0 93.10239c0 3.7050781 3.0035706 6.7086487 6.708679 6.7086487l0 0l0 0c3.7050781 0 6.7086487 -3.0035706 6.7086487 -6.7086487z" fill-rule="evenodd"/><path stroke="#efefef" stroke-width="2.0" stroke-linejoin="round" stroke-linecap="butt" d="m307.02493 298.19946l0 0c0 -3.7050781 -3.0035706 -6.7086487 -6.7086487 -6.7086487l0 0l0 0c-1.7792664 0 -3.4856262 0.7068176 -4.743744 1.9649353c-1.2581177 1.2581177 -1.9649353 2.9644775 -1.9649353 4.7437134l0 93.10239c0 3.7050781 3.0035706 6.7086487 6.708679 6.7086487l0 0l0 0c3.7050781 0 6.7086487 -3.0035706 6.7086487 -6.7086487z" fill-rule="evenodd"/><path fill="#ffd966" d="m288.58398 306.62466l0 0c0 -3.7050781 -3.0035706 -6.7086487 -6.7086487 -6.7086487l0 0l0 0c-1.7792664 0 -3.4856262 0.7067871 -4.743744 1.9649048c-1.2581177 1.2581177 -1.9649353 2.964508 -1.9649353 4.743744l0 76.25198c0 3.7050781 3.0035706 6.7086487 6.708679 6.7086487l0 0l0 0c3.7050781 0 6.7086487 -3.0035706 6.7086487 -6.7086487z" fill-rule="evenodd"/><path stroke="#efefef" stroke-width="2.0" stroke-linejoin="round" stroke-linecap="butt" d="m288.58398 306.62466l0 0c0 -3.7050781 -3.0035706 -6.7086487 -6.7086487 -6.7086487l0 0l0 0c-1.7792664 0 -3.4856262 0.7067871 -4.743744 1.9649048c-1.2581177 1.2581177 -1.9649353 2.964508 -1.9649353 4.743744l0 76.25198c0 3.7050781 3.0035706 6.7086487 6.708679 6.7086487l0 0l0 0c3.7050781 0 6.7086487 -3.0035706 6.7086487 -6.7086487z" fill-rule="evenodd"/><path fill="#ffd966" d="m270.14304 316.9239l0 0c0 -3.7051086 -3.0035706 -6.708679 -6.7086487 -6.708679l0 0l0 0c-1.7792664 0 -3.4856262 0.7068176 -4.743744 1.9649353c-1.2581177 1.2581177 -1.9649353 2.9644775 -1.9649353 4.743744l0 55.653534c0 3.7051086 3.0035706 6.708679 6.708679 6.708679l0 0l0 0c3.7050781 0 6.7086487 -3.0035706 6.7086487 -6.708679z" fill-rule="evenodd"/><path stroke="#efefef" stroke-width="2.0" stroke-linejoin="round" stroke-linecap="butt" d="m270.14304 316.9239l0 0c0 -3.7051086 -3.0035706 -6.708679 -6.7086487 -6.708679l0 0l0 0c-1.7792664 0 -3.4856262 0.7068176 -4.743744 1.9649353c-1.2581177 1.2581177 -1.9649353 2.9644775 -1.9649353 4.743744l0 55.653534c0 3.7051086 3.0035706 6.708679 6.708679 6.708679l0 0l0 0c3.7050781 0 6.7086487 -3.0035706 6.7086487 -6.708679z" fill-rule="evenodd"/><path fill="#93c47d" d="m307.02493 415.96063l0 0c0 -3.7051086 -3.0035706 -6.7086487 -6.7086487 -6.7086487l0 0l0 0c-1.7792664 0 -3.4856262 0.7067871 -4.743744 1.9649048c-1.2581177 1.2581177 -1.9649353 2.964508 -1.9649353 4.743744l0 93.102356c0 3.7050781 3.0035706 6.708679 6.708679 6.708679l0 0l0 0c3.7050781 0 6.7086487 -3.003601 6.7086487 -6.708679z" fill-rule="evenodd"/><path stroke="#efefef" stroke-width="2.0" stroke-linejoin="round" stroke-linecap="butt" d="m307.02493 415.96063l0 0c0 -3.7051086 -3.0035706 -6.7086487 -6.7086487 -6.7086487l0 0l0 0c-1.7792664 0 -3.4856262 0.7067871 -4.743744 1.9649048c-1.2581177 1.2581177 -1.9649353 2.964508 -1.9649353 4.743744l0 93.102356c0 3.7050781 3.0035706 6.708679 6.708679 6.708679l0 0l0 0c3.7050781 0 6.7086487 -3.003601 6.7086487 -6.708679z" fill-rule="evenodd"/><path fill="#93c47d" d="m288.58398 424.38583l0 0c0 -3.7051086 -3.0035706 -6.708679 -6.7086487 -6.708679l0 0l0 0c-1.7792664 0 -3.4856262 0.7068176 -4.743744 1.9649353c-1.2581177 1.2581177 -1.9649353 2.9644775 -1.9649353 4.743744l0 76.25195c0 3.7051086 3.0035706 6.708679 6.708679 6.708679l0 0l0 0c3.7050781 0 6.7086487 -3.0035706 6.7086487 -6.708679z" fill-rule="evenodd"/><path stroke="#efefef" stroke-width="2.0" stroke-linejoin="round" stroke-linecap="butt" d="m288.58398 424.38583l0 0c0 -3.7051086 -3.0035706 -6.708679 -6.7086487 -6.708679l0 0l0 0c-1.7792664 0 -3.4856262 0.7068176 -4.743744 1.9649353c-1.2581177 1.2581177 -1.9649353 2.9644775 -1.9649353 4.743744l0 76.25195c0 3.7051086 3.0035706 6.708679 6.708679 6.708679l0 0l0 0c3.7050781 0 6.7086487 -3.0035706 6.7086487 -6.708679z" fill-rule="evenodd"/><path fill="#93c47d" d="m270.14304 434.68503l0 0c0 -3.7050781 -3.0035706 -6.7086487 -6.7086487 -6.7086487l0 0l0 0c-1.7792664 0 -3.4856262 0.7067871 -4.743744 1.9649048c-1.2581177 1.2581482 -1.9649353 2.964508 -1.9649353 4.743744l0 55.653564c0 3.7050781 3.0035706 6.7086487 6.708679 6.7086487l0 0l0 0c3.7050781 0 6.7086487 -3.0035706 6.7086487 -6.7086487z" fill-rule="evenodd"/><path stroke="#efefef" stroke-width="2.0" stroke-linejoin="round" stroke-linecap="butt" d="m270.14304 434.68503l0 0c0 -3.7050781 -3.0035706 -6.7086487 -6.7086487 -6.7086487l0 0l0 0c-1.7792664 0 -3.4856262 0.7067871 -4.743744 1.9649048c-1.2581177 1.2581482 -1.9649353 2.964508 -1.9649353 4.743744l0 55.653564c0 3.7050781 3.0035706 6.7086487 6.708679 6.7086487l0 0l0 0c3.7050781 0 6.7086487 -3.0035706 6.7086487 -6.7086487z" fill-rule="evenodd"/><path fill="#e06666" d="m188.61023 99.66404l11.811035 0l0 20.440948l-11.811035 0z" fill-rule="evenodd"/><path stroke="#efefef" stroke-width="1.0" stroke-linejoin="round" stroke-linecap="butt" d="m188.61023 99.66404l11.811035 0l0 20.440948l-11.811035 0z" fill-rule="evenodd"/><path fill="#f6b26b" d="m188.61023 216.76772l11.811035 0l0 20.440948l-11.811035 0z" fill-rule="evenodd"/><path stroke="#efefef" stroke-width="1.0" stroke-linejoin="round" stroke-linecap="butt" d="m188.61023 216.76772l11.811035 0l0 20.440948l-11.811035 0z" fill-rule="evenodd"/><path fill="#ffd966" d="m188.61023 333.87402l11.811035 0l0 20.440948l-11.811035 0z" fill-rule="evenodd"/><path stroke="#efefef" stroke-width="1.0" stroke-linejoin="round" stroke-linecap="butt" d="m188.61023 333.87402l11.811035 0l0 20.440948l-11.811035 0z" fill-rule="evenodd"/><path fill="#93c47d" d="m188.61023 451.6299l11.811035 0l0 20.440948l-11.811035 0z" fill-rule="evenodd"/><path stroke="#efefef" stroke-width="1.0" stroke-linejoin="round" stroke-linecap="butt" d="m188.61023 451.6299l11.811035 0l0 20.440948l-11.811035 0z" fill-rule="evenodd"/><path fill="#e06666" d="m200.42126 570.0525l11.81102 0l0 20.440918l-11.81102 0z" fill-rule="evenodd"/><path stroke="#efefef" stroke-width="1.0" stroke-linejoin="round" stroke-linecap="butt" d="m200.42126 570.0525l11.81102 0l0 20.440918l-11.81102 0z" fill-rule="evenodd"/><path fill="#f6b26b" d="m212.23228 570.0525l11.81102 0l0 20.440918l-11.81102 0z" fill-rule="evenodd"/><path stroke="#efefef" stroke-width="1.0" stroke-linejoin="round" stroke-linecap="butt" d="m212.23228 570.0525l11.81102 0l0 20.440918l-11.81102 0z" fill-rule="evenodd"/><path fill="#ffd966" d="m224.0433 570.0525l11.81102 0l0 20.440918l-11.81102 0z" fill-rule="evenodd"/><path stroke="#efefef" stroke-width="1.0" stroke-linejoin="round" stroke-linecap="butt" d="m224.0433 570.0525l11.81102 0l0 20.440918l-11.81102 0z" fill-rule="evenodd"/><path fill="#93c47d" d="m235.85432 570.0525l11.811035 0l0 20.440918l-11.811035 0z" fill-rule="evenodd"/><path stroke="#efefef" stroke-width="1.0" stroke-linejoin="round" stroke-linecap="butt" d="m235.85432 570.0525l11.811035 0l0 20.440918l-11.811035 0z" fill-rule="evenodd"/><path fill="#d9d9d9" d="m307.02493 533.7218l0 0c0 -3.7050781 -3.0035706 -6.708679 -6.7086487 -6.708679l0 0l0 0c-1.7792664 0 -3.4856262 0.7067871 -4.743744 1.9649048c-1.2581177 1.2581177 -1.9649353 2.9645386 -1.9649353 4.7437744l0 93.102356c0 3.7050781 3.0035706 6.708679 6.708679 6.708679l0 0l0 0c3.7050781 0 6.7086487 -3.003601 6.7086487 -6.708679z" fill-rule="evenodd"/><path stroke="#efefef" stroke-width="2.0" stroke-linejoin="round" stroke-linecap="butt" d="m307.02493 533.7218l0 0c0 -3.7050781 -3.0035706 -6.708679 -6.7086487 -6.708679l0 0l0 0c-1.7792664 0 -3.4856262 0.7067871 -4.743744 1.9649048c-1.2581177 1.2581177 -1.9649353 2.9645386 -1.9649353 4.7437744l0 93.102356c0 3.7050781 3.0035706 6.708679 6.708679 6.708679l0 0l0 0c3.7050781 0 6.7086487 -3.003601 6.7086487 -6.708679z" fill-rule="evenodd"/><path fill="#d9d9d9" d="m288.58398 542.147l0 0c0 -3.7050781 -3.0035706 -6.708679 -6.7086487 -6.708679l0 0l0 0c-1.7792664 0 -3.4856262 0.70684814 -4.743744 1.9649658c-1.2581177 1.2581177 -1.9649353 2.9644775 -1.9649353 4.7437134l0 76.25195c0 3.7051392 3.0035706 6.708679 6.708679 6.708679l0 0l0 0c3.7050781 0 6.7086487 -3.00354 6.7086487 -6.708679z" fill-rule="evenodd"/><path stroke="#efefef" stroke-width="2.0" stroke-linejoin="round" stroke-linecap="butt" d="m288.58398 542.147l0 0c0 -3.7050781 -3.0035706 -6.708679 -6.7086487 -6.708679l0 0l0 0c-1.7792664 0 -3.4856262 0.70684814 -4.743744 1.9649658c-1.2581177 1.2581177 -1.9649353 2.9644775 -1.9649353 4.7437134l0 76.25195c0 3.7051392 3.0035706 6.708679 6.708679 6.708679l0 0l0 0c3.7050781 0 6.7086487 -3.00354 6.7086487 -6.708679z" fill-rule="evenodd"/><path fill="#d9d9d9" d="m270.14304 552.44617l0 0c0 -3.7050781 -3.0035706 -6.708618 -6.7086487 -6.708618l0 0l0 0c-1.7792664 0 -3.4856262 0.7067871 -4.743744 1.9649048c-1.2581177 1.2581177 -1.9649353 2.9644775 -1.9649353 4.7437134l0 55.653564c0 3.7050781 3.0035706 6.708679 6.708679 6.708679l0 0l0 0c3.7050781 0 6.7086487 -3.003601 6.7086487 -6.708679z" fill-rule="evenodd"/><path stroke="#efefef" stroke-width="2.0" stroke-linejoin="round" stroke-linecap="butt" d="m270.14304 552.44617l0 0c0 -3.7050781 -3.0035706 -6.708618 -6.7086487 -6.708618l0 0l0 0c-1.7792664 0 -3.4856262 0.7067871 -4.743744 1.9649048c-1.2581177 1.2581177 -1.9649353 2.9644775 -1.9649353 4.7437134l0 55.653564c0 3.7050781 3.0035706 6.708679 6.708679 6.708679l0 0l0 0c3.7050781 0 6.7086487 -3.003601 6.7086487 -6.708679z" fill-rule="evenodd"/><path fill="#000000" fill-opacity="0.0" d="m194.51575 120.10499l0 96.661415" fill-rule="evenodd"/><path stroke="#efefef" stroke-width="1.0" stroke-linejoin="round" stroke-linecap="butt" d="m194.51575 120.10499l0 96.661415" fill-rule="evenodd"/><path fill="#000000" fill-opacity="0.0" d="m194.51575 236.55118l0 97.322845" fill-rule="evenodd"/><path stroke="#efefef" stroke-width="1.0" stroke-linejoin="round" stroke-linecap="butt" d="m194.51575 236.55118l0 97.322845" fill-rule="evenodd"/><path fill="#000000" fill-opacity="0.0" d="m194.51575 354.31497l0 97.322815" fill-rule="evenodd"/><path stroke="#efefef" stroke-width="1.0" stroke-linejoin="round" stroke-linecap="butt" d="m194.51575 354.31497l0 97.322815" fill-rule="evenodd"/><path fill="#000000" fill-opacity="0.0" d="m194.51575 472.07086l0 108.188965l5.9212646 0" fill-rule="evenodd"/><path stroke="#efefef" stroke-width="1.0" stroke-linejoin="round" stroke-linecap="butt" d="m194.51575 472.07086l0 108.188965l5.9212646 0" fill-rule="evenodd"/><path fill="#000000" fill-opacity="0.0" d="m350.52887 111.7769l0 0c0 -10.436874 8.460754 -18.897636 18.897644 -18.897636l0 0c5.011963 0 9.818634 1.9909973 13.36264 5.5349884c3.5440063 3.5439987 5.5350037 8.350685 5.5350037 13.362648l0 0c0 10.436882 -8.460785 18.897644 -18.897644 18.897644l0 0c-10.43689 0 -18.897644 -8.460762 -18.897644 -18.897644z" fill-rule="evenodd"/><path stroke="#e06666" stroke-width="2.0" stroke-linejoin="round" stroke-linecap="butt" stroke-dasharray="8.0,6.0" d="m350.52887 111.7769l0 0c0 -10.436874 8.460754 -18.897636 18.897644 -18.897636l0 0c5.011963 0 9.818634 1.9909973 13.36264 5.5349884c3.5440063 3.5439987 5.5350037 8.350685 5.5350037 13.362648l0 0c0 10.436882 -8.460785 18.897644 -18.897644 18.897644l0 0c-10.43689 0 -18.897644 -8.460762 -18.897644 -18.897644z" fill-rule="evenodd"/><path fill="#e06666" d="m356.31366 109.884514l5.669281 -5.6692886l5.669281 5.6692886l-5.669281 5.6692886z" fill-rule="evenodd"/><path fill="#e06666" d="m371.27954 111.03674l5.669281 -9.480316l5.669281 9.480316z" fill-rule="evenodd"/><path fill="#e06666" d="m365.81497 119.88475l4.330963 3.0517578E-5l1.3383179 -4.3309784l1.3383179 4.3309784l4.330963 -3.0517578E-5l-3.5038452 2.6766586l1.3383789 4.330948l-3.5038147 -2.6767044l-3.5038147 2.6767044l1.3383789 -4.330948z" fill-rule="evenodd"/><path fill="#000000" fill-opacity="0.0" d="m350.52887 228.26378l0 0c0 -10.436874 8.460754 -18.897644 18.897644 -18.897644l0 0c5.011963 0 9.818634 1.9909973 13.36264 5.5350037c3.5440063 3.543991 5.5350037 8.3506775 5.5350037 13.36264l0 0c0 10.436874 -8.460785 18.897644 -18.897644 18.897644l0 0c-10.43689 0 -18.897644 -8.46077 -18.897644 -18.897644z" fill-rule="evenodd"/><path stroke="#f6b26b" stroke-width="2.0" stroke-linejoin="round" stroke-linecap="butt" stroke-dasharray="8.0,6.0" d="m350.52887 228.26378l0 0c0 -10.436874 8.460754 -18.897644 18.897644 -18.897644l0 0c5.011963 0 9.818634 1.9909973 13.36264 5.5350037c3.5440063 3.543991 5.5350037 8.3506775 5.5350037 13.36264l0 0c0 10.436874 -8.460785 18.897644 -18.897644 18.897644l0 0c-10.43689 0 -18.897644 -8.46077 -18.897644 -18.897644z" fill-rule="evenodd"/><path fill="#f6b26b" d="m356.31366 226.37138l5.669281 -5.669281l5.669281 5.669281l-5.669281 5.6692963z" fill-rule="evenodd"/><path fill="#f6b26b" d="m371.27954 227.52362l5.669281 -9.480316l5.669281 9.480316z" fill-rule="evenodd"/><path fill="#f6b26b" d="m365.81497 236.37163l4.330963 3.0517578E-5l1.3383179 -4.3309784l1.3383179 4.3309784l4.330963 -3.0517578E-5l-3.5038452 2.676651l1.3383789 4.330963l-3.5038147 -2.676712l-3.5038147 2.676712l1.3383789 -4.330963z" fill-rule="evenodd"/><path fill="#000000" fill-opacity="0.0" d="m350.52887 344.75067l0 0c0 -10.43689 8.460754 -18.897644 18.897644 -18.897644l0 0c5.011963 0 9.818634 1.9909973 13.36264 5.534973c3.5440063 3.5440063 5.5350037 8.3506775 5.5350037 13.362671l0 0c0 10.436859 -8.460785 18.897614 -18.897644 18.897614l0 0c-10.43689 0 -18.897644 -8.460754 -18.897644 -18.897614z" fill-rule="evenodd"/><path stroke="#ffd966" stroke-width="2.0" stroke-linejoin="round" stroke-linecap="butt" stroke-dasharray="8.0,6.0" d="m350.52887 344.75067l0 0c0 -10.43689 8.460754 -18.897644 18.897644 -18.897644l0 0c5.011963 0 9.818634 1.9909973 13.36264 5.534973c3.5440063 3.5440063 5.5350037 8.3506775 5.5350037 13.362671l0 0c0 10.436859 -8.460785 18.897614 -18.897644 18.897614l0 0c-10.43689 0 -18.897644 -8.460754 -18.897644 -18.897614z" fill-rule="evenodd"/><path fill="#ffd966" d="m356.31366 342.85828l5.669281 -5.6693115l5.669281 5.6693115l-5.669281 5.669281z" fill-rule="evenodd"/><path fill="#ffd966" d="m371.27954 344.0105l5.669281 -9.480316l5.669281 9.480316z" fill-rule="evenodd"/><path fill="#ffd966" d="m365.81497 352.8585l4.330963 3.0517578E-5l1.3383179 -4.330963l1.3383179 4.330963l4.330963 -3.0517578E-5l-3.5038452 2.6766663l1.3383789 4.330963l-3.5038147 -2.6767273l-3.5038147 2.6767273l1.3383789 -4.330963z" fill-rule="evenodd"/><path fill="#000000" fill-opacity="0.0" d="m350.52887 459.96326l0 0c0 -10.43689 8.460754 -18.897644 18.897644 -18.897644l0 0c5.011963 0 9.818634 1.9909973 13.36264 5.5350037c3.5440063 3.5439758 5.5350037 8.3506775 5.5350037 13.36264l0 0c0 10.43689 -8.460785 18.897644 -18.897644 18.897644l0 0c-10.43689 0 -18.897644 -8.460754 -18.897644 -18.897644z" fill-rule="evenodd"/><path stroke="#93c47d" stroke-width="2.0" stroke-linejoin="round" stroke-linecap="butt" stroke-dasharray="8.0,6.0" d="m350.52887 459.96326l0 0c0 -10.43689 8.460754 -18.897644 18.897644 -18.897644l0 0c5.011963 0 9.818634 1.9909973 13.36264 5.5350037c3.5440063 3.5439758 5.5350037 8.3506775 5.5350037 13.36264l0 0c0 10.43689 -8.460785 18.897644 -18.897644 18.897644l0 0c-10.43689 0 -18.897644 -8.460754 -18.897644 -18.897644z" fill-rule="evenodd"/><path fill="#93c47d" d="m356.31366 458.07086l5.669281 -5.669281l5.669281 5.669281l-5.669281 5.669281z" fill-rule="evenodd"/><path fill="#93c47d" d="m371.27954 459.22308l5.669281 -9.480316l5.669281 9.480316z" fill-rule="evenodd"/><path fill="#93c47d" d="m365.81497 468.0711l4.330963 3.0517578E-5l1.3383179 -4.3309937l1.3383179 4.3309937l4.330963 -3.0517578E-5l-3.5038452 2.6766663l1.3383789 4.3309326l-3.5038147 -2.6766968l-3.5038147 2.6766968l1.3383789 -4.3309326z" fill-rule="evenodd"/><path fill="#000000" fill-opacity="0.0" d="m350.52887 581.5066l0 0c0 -10.43689 8.460754 -18.897644 18.897644 -18.897644l0 0c5.011963 0 9.818634 1.9909668 13.36264 5.534973c3.5440063 3.5440063 5.5350037 8.350647 5.5350037 13.362671l0 0c0 10.436829 -8.460785 18.897583 -18.897644 18.897583l0 0c-10.43689 0 -18.897644 -8.460754 -18.897644 -18.897583z" fill-rule="evenodd"/><path stroke="#d9d9d9" stroke-width="2.0" stroke-linejoin="round" stroke-linecap="butt" stroke-dasharray="8.0,6.0" d="m350.52887 581.5066l0 0c0 -10.43689 8.460754 -18.897644 18.897644 -18.897644l0 0c5.011963 0 9.818634 1.9909668 13.36264 5.534973c3.5440063 3.5440063 5.5350037 8.350647 5.5350037 13.362671l0 0c0 10.436829 -8.460785 18.897583 -18.897644 18.897583l0 0c-10.43689 0 -18.897644 -8.460754 -18.897644 -18.897583z" fill-rule="evenodd"/><path fill="#d9d9d9" d="m356.31366 579.6142l5.669281 -5.6693115l5.669281 5.6693115l-5.669281 5.6692505z" fill-rule="evenodd"/><path fill="#d9d9d9" d="m371.27954 580.7664l5.669281 -9.480347l5.669281 9.480347z" fill-rule="evenodd"/><path fill="#d9d9d9" d="m365.81497 589.6144l4.330963 6.1035156E-5l1.3383179 -4.3309937l1.3383179 4.3309937l4.330963 -6.1035156E-5l-3.5038452 2.6766968l1.3383789 4.3309326l-3.5038147 -2.6766968l-3.5038147 2.6766968l1.3383789 -4.3309326z" fill-rule="evenodd"/><path fill="#000000" fill-opacity="0.0" d="m444.07217 99.74541l47.24411 0l0 24.062988l-47.24411 0z" fill-rule="evenodd"/><path fill="#ffffff" d="m456.88467 118.79378q-0.796875 0 -1.453125 -0.234375q-0.65625 -0.234375 -1.1875 -0.65625q-0.078125 -0.078125 -0.140625 -0.171875q-0.0625 -0.09375 -0.09375 -0.203125q-0.09375 -0.375 -0.125 -0.96875q-0.03125 -0.59375 -0.0625 -0.984375q0 -0.140625 0.109375 -0.203125q0.109375 -0.0625 0.265625 -0.0625q0.09375 0 0.1875 0.046875q0.09375 0.046875 0.109375 0.15625q0.375 1.4375 1.109375 2.0625q0.734375 0.609375 1.53125 0.609375q0.65625 0 1.15625 -0.28125q0.515625 -0.28125 0.796875 -0.796875q0.296875 -0.515625 0.296875 -1.203125q0 -0.765625 -0.265625 -1.234375q-0.25 -0.484375 -0.71875 -0.828125q-0.453125 -0.359375 -1.125 -0.765625q-0.734375 -0.46875 -1.453125 -0.9375q-0.703125 -0.484375 -1.171875 -1.109375q-0.453125 -0.625 -0.453125 -1.53125q0 -0.9375 0.421875 -1.703125q0.4375 -0.765625 1.296875 -1.21875q0.875 -0.46875 2.171875 -0.46875q0.671875 0 1.15625 0.140625q0.5 0.140625 0.8125 0.265625q0.140625 0.0625 0.234375 0.203125q0.109375 0.125 0.15625 0.265625q0.109375 0.390625 0.234375 0.90625q0.140625 0.5 0.140625 0.953125q0 0.203125 -0.28125 0.203125q-0.171875 0 -0.328125 -0.078125q-0.15625 -0.078125 -0.203125 -0.1875q-0.390625 -0.984375 -0.921875 -1.5q-0.515625 -0.53125 -1.3125 -0.53125q-0.5625 0 -1.046875 0.203125q-0.484375 0.203125 -0.796875 0.671875q-0.296875 0.46875 -0.296875 1.25q0 0.5625 0.359375 1.015625q0.359375 0.453125 0.953125 0.875q0.609375 0.40625 1.296875 0.828125q0.65625 0.390625 1.28125 0.859375q0.625 0.46875 1.015625 1.109375q0.40625 0.640625 0.40625 1.578125q0 1.109375 -0.515625 1.9375q-0.5 0.828125 -1.421875 1.28125q-0.90625 0.4375 -2.125 0.4375zm5.690796 -0.234375q-0.171875 0 -0.28125 -0.046875q-0.09375 -0.046875 -0.09375 -0.171875q0 -0.140625 0.140625 -0.1875q0.140625 -0.0625 0.28125 -0.109375q0.390625 -0.09375 0.59375 -0.234375q0.203125 -0.140625 0.203125 -0.46875l0 -4.046875q0 -0.5 -0.171875 -0.890625q-0.171875 -0.40625 -0.65625 -0.46875q-0.09375 -0.015625 -0.140625 -0.078125q-0.046875 -0.0625 -0.046875 -0.171875q0 -0.203125 0.171875 -0.21875q0.734375 -0.171875 1.21875 -0.453125q0.484375 -0.296875 0.734375 -0.484375q0.171875 -0.125 0.265625 -0.125q0.109375 0 0.109375 0.09375q0 0.140625 -0.046875 0.578125q-0.046875 0.4375 -0.09375 0.984375q-0.03125 0.53125 -0.03125 0.953125l0 4.328125q0 0.3125 0.21875 0.46875q0.21875 0.140625 0.578125 0.234375q0.15625 0.046875 0.296875 0.109375q0.140625 0.046875 0.140625 0.1875q0 0.21875 -0.375 0.21875q-0.359375 0 -0.578125 -0.03125q-0.203125 -0.03125 -0.40625 -0.046875q-0.1875 -0.015625 -0.53125 -0.015625q-0.3125 0 -0.515625 0.015625q-0.203125 0.015625 -0.421875 0.046875q-0.203125 0.03125 -0.5625 0.03125zm1.484375 -9.6875q-0.390625 0 -0.65625 -0.265625q-0.265625 -0.28125 -0.265625 -0.671875q0 -0.40625 0.265625 -0.671875q0.265625 -0.28125 0.65625 -0.28125q0.421875 0 0.6875 0.28125q0.265625 0.265625 0.265625 0.671875q0 0.390625 -0.265625 0.671875q-0.265625 0.265625 -0.6875 0.265625zm3.0863953 9.6875q-0.15625 0 -0.265625 -0.046875q-0.109375 -0.03125 -0.109375 -0.171875q0 -0.125 0.109375 -0.171875q0.125 -0.0625 0.3125 -0.125q0.265625 -0.09375 0.53125 -0.203125q0.265625 -0.125 0.265625 -0.5l0 -4.015625q0 -0.5 -0.109375 -0.875q-0.109375 -0.390625 -0.59375 -0.46875q-0.078125 -0.015625 -0.125 -0.0625q-0.046875 -0.0625 -0.046875 -0.171875q0 -0.1875 0.15625 -0.234375q0.5 -0.125 0.796875 -0.265625q0.296875 -0.140625 0.53125 -0.3125q0.234375 -0.1875 0.578125 -0.390625q0.03125 -0.015625 0.0625 -0.03125q0.046875 -0.03125 0.09375 -0.03125q0.125 0 0.125 0.125q0 0.125 -0.046875 0.53125q-0.046875 0.40625 -0.046875 0.65625q0 0.1875 0.03125 0.234375l0.03125 0q0.4375 -0.421875 1.125 -0.828125q0.703125 -0.421875 1.796875 -0.421875q0.671875 0 1.109375 0.296875q0.453125 0.28125 0.75 0.984375l0.0625 0q0.59375 -0.546875 1.359375 -0.90625q0.765625 -0.375 1.671875 -0.375q0.625 0 1.03125 0.375q0.40625 0.359375 0.625 0.96875q0.21875 0.59375 0.21875 1.25l0 3.96875q0 0.375 0.25 0.5q0.265625 0.109375 0.546875 0.203125q0.1875 0.0625 0.296875 0.125q0.125 0.046875 0.125 0.171875q0 0.125 -0.078125 0.171875q-0.078125 0.046875 -0.28125 0.046875q-0.375 0 -0.59375 -0.03125q-0.203125 -0.03125 -0.375 -0.046875q-0.171875 -0.015625 -0.515625 -0.015625q-0.3125 0 -0.515625 0.015625q-0.203125 0.015625 -0.4375 0.046875q-0.21875 0.03125 -0.59375 0.03125q-0.171875 0 -0.28125 -0.046875q-0.09375 -0.046875 -0.09375 -0.171875q0 -0.140625 0.125 -0.1875q0.125 -0.0625 0.3125 -0.109375q0.296875 -0.0625 0.546875 -0.1875q0.25 -0.140625 0.25 -0.515625l0 -3.921875q0 -0.4375 -0.203125 -0.84375q-0.203125 -0.40625 -0.546875 -0.65625q-0.328125 -0.265625 -0.734375 -0.265625q-0.46875 0 -0.875 0.109375q-0.40625 0.109375 -0.75 0.390625q-0.53125 0.40625 -0.53125 1.34375l0 3.84375q0 0.375 0.28125 0.515625q0.28125 0.125 0.5625 0.1875q0.1875 0.046875 0.296875 0.109375q0.125 0.0625 0.125 0.1875q0 0.125 -0.09375 0.171875q-0.078125 0.046875 -0.265625 0.046875q-0.375 0 -0.59375 -0.03125q-0.21875 -0.03125 -0.421875 -0.046875q-0.1875 -0.015625 -0.515625 -0.015625q-0.328125 0 -0.53125 0.015625q-0.203125 0.015625 -0.4375 0.046875q-0.21875 0.03125 -0.578125 0.03125q-0.15625 0 -0.265625 -0.046875q-0.109375 -0.046875 -0.109375 -0.171875q0 -0.140625 0.140625 -0.1875q0.140625 -0.046875 0.28125 -0.109375q0.28125 -0.09375 0.546875 -0.203125q0.28125 -0.125 0.28125 -0.5l0 -3.921875q0 -0.4375 -0.21875 -0.84375q-0.203125 -0.40625 -0.546875 -0.65625q-0.328125 -0.265625 -0.734375 -0.265625q-0.46875 0 -0.875 0.109375q-0.390625 0.109375 -0.75 0.390625q-0.5 0.375 -0.5 1.34375l0 3.84375q0 0.375 0.25 0.5q0.265625 0.109375 0.546875 0.203125q0.15625 0.0625 0.296875 0.109375q0.140625 0.046875 0.140625 0.1875q0 0.125 -0.109375 0.171875q-0.09375 0.046875 -0.265625 0.046875q-0.375 0 -0.59375 -0.03125q-0.203125 -0.03125 -0.390625 -0.046875q-0.1875 -0.015625 -0.53125 -0.015625q-0.3125 0 -0.515625 0.015625q-0.1875 0.015625 -0.40625 0.046875q-0.21875 0.03125 -0.578125 0.03125z" fill-rule="nonzero"/><path fill="#000000" fill-opacity="0.0" d="m444.07217 216.23228l47.24411 0l0 24.062988l-47.24411 0z" fill-rule="evenodd"/><path fill="#ffffff" d="m456.88467 235.28065q-0.796875 0 -1.453125 -0.234375q-0.65625 -0.234375 -1.1875 -0.65625q-0.078125 -0.078125 -0.140625 -0.171875q-0.0625 -0.09375 -0.09375 -0.203125q-0.09375 -0.375 -0.125 -0.96875q-0.03125 -0.59375 -0.0625 -0.984375q0 -0.140625 0.109375 -0.203125q0.109375 -0.0625 0.265625 -0.0625q0.09375 0 0.1875 0.046875q0.09375 0.046875 0.109375 0.15625q0.375 1.4375 1.109375 2.0625q0.734375 0.609375 1.53125 0.609375q0.65625 0 1.15625 -0.28125q0.515625 -0.28125 0.796875 -0.796875q0.296875 -0.515625 0.296875 -1.203125q0 -0.765625 -0.265625 -1.234375q-0.25 -0.484375 -0.71875 -0.828125q-0.453125 -0.359375 -1.125 -0.765625q-0.734375 -0.46875 -1.453125 -0.9375q-0.703125 -0.484375 -1.171875 -1.109375q-0.453125 -0.625 -0.453125 -1.53125q0 -0.9375 0.421875 -1.703125q0.4375 -0.765625 1.296875 -1.21875q0.875 -0.46875 2.171875 -0.46875q0.671875 0 1.15625 0.140625q0.5 0.140625 0.8125 0.265625q0.140625 0.0625 0.234375 0.203125q0.109375 0.125 0.15625 0.265625q0.109375 0.390625 0.234375 0.90625q0.140625 0.5 0.140625 0.953125q0 0.203125 -0.28125 0.203125q-0.171875 0 -0.328125 -0.078125q-0.15625 -0.078125 -0.203125 -0.1875q-0.390625 -0.984375 -0.921875 -1.5q-0.515625 -0.53125 -1.3125 -0.53125q-0.5625 0 -1.046875 0.203125q-0.484375 0.203125 -0.796875 0.671875q-0.296875 0.46875 -0.296875 1.25q0 0.5625 0.359375 1.015625q0.359375 0.453125 0.953125 0.875q0.609375 0.40625 1.296875 0.828125q0.65625 0.390625 1.28125 0.859375q0.625 0.46875 1.015625 1.109375q0.40625 0.640625 0.40625 1.578125q0 1.109375 -0.515625 1.9375q-0.5 0.828125 -1.421875 1.28125q-0.90625 0.4375 -2.125 0.4375zm5.690796 -0.234375q-0.171875 0 -0.28125 -0.046875q-0.09375 -0.046875 -0.09375 -0.171875q0 -0.140625 0.140625 -0.1875q0.140625 -0.0625 0.28125 -0.109375q0.390625 -0.09375 0.59375 -0.234375q0.203125 -0.140625 0.203125 -0.46875l0 -4.046875q0 -0.5 -0.171875 -0.890625q-0.171875 -0.40625 -0.65625 -0.46875q-0.09375 -0.015625 -0.140625 -0.078125q-0.046875 -0.0625 -0.046875 -0.171875q0 -0.203125 0.171875 -0.21875q0.734375 -0.171875 1.21875 -0.453125q0.484375 -0.296875 0.734375 -0.484375q0.171875 -0.125 0.265625 -0.125q0.109375 0 0.109375 0.09375q0 0.140625 -0.046875 0.578125q-0.046875 0.4375 -0.09375 0.984375q-0.03125 0.53125 -0.03125 0.953125l0 4.328125q0 0.3125 0.21875 0.46875q0.21875 0.140625 0.578125 0.234375q0.15625 0.046875 0.296875 0.109375q0.140625 0.046875 0.140625 0.1875q0 0.21875 -0.375 0.21875q-0.359375 0 -0.578125 -0.03125q-0.203125 -0.03125 -0.40625 -0.046875q-0.1875 -0.015625 -0.53125 -0.015625q-0.3125 0 -0.515625 0.015625q-0.203125 0.015625 -0.421875 0.046875q-0.203125 0.03125 -0.5625 0.03125zm1.484375 -9.6875q-0.390625 0 -0.65625 -0.265625q-0.265625 -0.28125 -0.265625 -0.671875q0 -0.40625 0.265625 -0.671875q0.265625 -0.28125 0.65625 -0.28125q0.421875 0 0.6875 0.28125q0.265625 0.265625 0.265625 0.671875q0 0.390625 -0.265625 0.671875q-0.265625 0.265625 -0.6875 0.265625zm3.0863953 9.6875q-0.15625 0 -0.265625 -0.046875q-0.109375 -0.03125 -0.109375 -0.171875q0 -0.125 0.109375 -0.171875q0.125 -0.0625 0.3125 -0.125q0.265625 -0.09375 0.53125 -0.203125q0.265625 -0.125 0.265625 -0.5l0 -4.015625q0 -0.5 -0.109375 -0.875q-0.109375 -0.390625 -0.59375 -0.46875q-0.078125 -0.015625 -0.125 -0.0625q-0.046875 -0.0625 -0.046875 -0.171875q0 -0.1875 0.15625 -0.234375q0.5 -0.125 0.796875 -0.265625q0.296875 -0.140625 0.53125 -0.3125q0.234375 -0.1875 0.578125 -0.390625q0.03125 -0.015625 0.0625 -0.03125q0.046875 -0.03125 0.09375 -0.03125q0.125 0 0.125 0.125q0 0.125 -0.046875 0.53125q-0.046875 0.40625 -0.046875 0.65625q0 0.1875 0.03125 0.234375l0.03125 0q0.4375 -0.421875 1.125 -0.828125q0.703125 -0.421875 1.796875 -0.421875q0.671875 0 1.109375 0.296875q0.453125 0.28125 0.75 0.984375l0.0625 0q0.59375 -0.546875 1.359375 -0.90625q0.765625 -0.375 1.671875 -0.375q0.625 0 1.03125 0.375q0.40625 0.359375 0.625 0.96875q0.21875 0.59375 0.21875 1.25l0 3.96875q0 0.375 0.25 0.5q0.265625 0.109375 0.546875 0.203125q0.1875 0.0625 0.296875 0.125q0.125 0.046875 0.125 0.171875q0 0.125 -0.078125 0.171875q-0.078125 0.046875 -0.28125 0.046875q-0.375 0 -0.59375 -0.03125q-0.203125 -0.03125 -0.375 -0.046875q-0.171875 -0.015625 -0.515625 -0.015625q-0.3125 0 -0.515625 0.015625q-0.203125 0.015625 -0.4375 0.046875q-0.21875 0.03125 -0.59375 0.03125q-0.171875 0 -0.28125 -0.046875q-0.09375 -0.046875 -0.09375 -0.171875q0 -0.140625 0.125 -0.1875q0.125 -0.0625 0.3125 -0.109375q0.296875 -0.0625 0.546875 -0.1875q0.25 -0.140625 0.25 -0.515625l0 -3.921875q0 -0.4375 -0.203125 -0.84375q-0.203125 -0.40625 -0.546875 -0.65625q-0.328125 -0.265625 -0.734375 -0.265625q-0.46875 0 -0.875 0.109375q-0.40625 0.109375 -0.75 0.390625q-0.53125 0.40625 -0.53125 1.34375l0 3.84375q0 0.375 0.28125 0.515625q0.28125 0.125 0.5625 0.1875q0.1875 0.046875 0.296875 0.109375q0.125 0.0625 0.125 0.1875q0 0.125 -0.09375 0.171875q-0.078125 0.046875 -0.265625 0.046875q-0.375 0 -0.59375 -0.03125q-0.21875 -0.03125 -0.421875 -0.046875q-0.1875 -0.015625 -0.515625 -0.015625q-0.328125 0 -0.53125 0.015625q-0.203125 0.015625 -0.4375 0.046875q-0.21875 0.03125 -0.578125 0.03125q-0.15625 0 -0.265625 -0.046875q-0.109375 -0.046875 -0.109375 -0.171875q0 -0.140625 0.140625 -0.1875q0.140625 -0.046875 0.28125 -0.109375q0.28125 -0.09375 0.546875 -0.203125q0.28125 -0.125 0.28125 -0.5l0 -3.921875q0 -0.4375 -0.21875 -0.84375q-0.203125 -0.40625 -0.546875 -0.65625q-0.328125 -0.265625 -0.734375 -0.265625q-0.46875 0 -0.875 0.109375q-0.390625 0.109375 -0.75 0.390625q-0.5 0.375 -0.5 1.34375l0 3.84375q0 0.375 0.25 0.5q0.265625 0.109375 0.546875 0.203125q0.15625 0.0625 0.296875 0.109375q0.140625 0.046875 0.140625 0.1875q0 0.125 -0.109375 0.171875q-0.09375 0.046875 -0.265625 0.046875q-0.375 0 -0.59375 -0.03125q-0.203125 -0.03125 -0.390625 -0.046875q-0.1875 -0.015625 -0.53125 -0.015625q-0.3125 0 -0.515625 0.015625q-0.1875 0.015625 -0.40625 0.046875q-0.21875 0.03125 -0.578125 0.03125z" fill-rule="nonzero"/><path fill="#000000" fill-opacity="0.0" d="m444.07217 332.71915l47.24411 0l0 24.063019l-47.24411 0z" fill-rule="evenodd"/><path fill="#ffffff" d="m456.88467 351.76752q-0.796875 0 -1.453125 -0.234375q-0.65625 -0.234375 -1.1875 -0.65625q-0.078125 -0.078125 -0.140625 -0.171875q-0.0625 -0.09375 -0.09375 -0.203125q-0.09375 -0.375 -0.125 -0.96875q-0.03125 -0.59375 -0.0625 -0.984375q0 -0.140625 0.109375 -0.203125q0.109375 -0.0625 0.265625 -0.0625q0.09375 0 0.1875 0.046875q0.09375 0.046875 0.109375 0.15625q0.375 1.4375 1.109375 2.0625q0.734375 0.609375 1.53125 0.609375q0.65625 0 1.15625 -0.28125q0.515625 -0.28125 0.796875 -0.796875q0.296875 -0.515625 0.296875 -1.203125q0 -0.765625 -0.265625 -1.234375q-0.25 -0.484375 -0.71875 -0.828125q-0.453125 -0.359375 -1.125 -0.765625q-0.734375 -0.46875 -1.453125 -0.9375q-0.703125 -0.484375 -1.171875 -1.109375q-0.453125 -0.625 -0.453125 -1.53125q0 -0.9375 0.421875 -1.703125q0.4375 -0.765625 1.296875 -1.21875q0.875 -0.46875 2.171875 -0.46875q0.671875 0 1.15625 0.140625q0.5 0.140625 0.8125 0.265625q0.140625 0.0625 0.234375 0.203125q0.109375 0.125 0.15625 0.265625q0.109375 0.390625 0.234375 0.90625q0.140625 0.5 0.140625 0.953125q0 0.203125 -0.28125 0.203125q-0.171875 0 -0.328125 -0.078125q-0.15625 -0.078125 -0.203125 -0.1875q-0.390625 -0.984375 -0.921875 -1.5q-0.515625 -0.53125 -1.3125 -0.53125q-0.5625 0 -1.046875 0.203125q-0.484375 0.203125 -0.796875 0.671875q-0.296875 0.46875 -0.296875 1.25q0 0.5625 0.359375 1.015625q0.359375 0.453125 0.953125 0.875q0.609375 0.40625 1.296875 0.828125q0.65625 0.390625 1.28125 0.859375q0.625 0.46875 1.015625 1.109375q0.40625 0.640625 0.40625 1.578125q0 1.109375 -0.515625 1.9375q-0.5 0.828125 -1.421875 1.28125q-0.90625 0.4375 -2.125 0.4375zm5.690796 -0.234375q-0.171875 0 -0.28125 -0.046875q-0.09375 -0.046875 -0.09375 -0.171875q0 -0.140625 0.140625 -0.1875q0.140625 -0.0625 0.28125 -0.109375q0.390625 -0.09375 0.59375 -0.234375q0.203125 -0.140625 0.203125 -0.46875l0 -4.046875q0 -0.5 -0.171875 -0.890625q-0.171875 -0.40625 -0.65625 -0.46875q-0.09375 -0.015625 -0.140625 -0.078125q-0.046875 -0.0625 -0.046875 -0.171875q0 -0.203125 0.171875 -0.21875q0.734375 -0.171875 1.21875 -0.453125q0.484375 -0.296875 0.734375 -0.484375q0.171875 -0.125 0.265625 -0.125q0.109375 0 0.109375 0.09375q0 0.140625 -0.046875 0.578125q-0.046875 0.4375 -0.09375 0.984375q-0.03125 0.53125 -0.03125 0.953125l0 4.328125q0 0.3125 0.21875 0.46875q0.21875 0.140625 0.578125 0.234375q0.15625 0.046875 0.296875 0.109375q0.140625 0.046875 0.140625 0.1875q0 0.21875 -0.375 0.21875q-0.359375 0 -0.578125 -0.03125q-0.203125 -0.03125 -0.40625 -0.046875q-0.1875 -0.015625 -0.53125 -0.015625q-0.3125 0 -0.515625 0.015625q-0.203125 0.015625 -0.421875 0.046875q-0.203125 0.03125 -0.5625 0.03125zm1.484375 -9.6875q-0.390625 0 -0.65625 -0.265625q-0.265625 -0.28125 -0.265625 -0.671875q0 -0.40625 0.265625 -0.671875q0.265625 -0.28125 0.65625 -0.28125q0.421875 0 0.6875 0.28125q0.265625 0.265625 0.265625 0.671875q0 0.390625 -0.265625 0.671875q-0.265625 0.265625 -0.6875 0.265625zm3.0863953 9.6875q-0.15625 0 -0.265625 -0.046875q-0.109375 -0.03125 -0.109375 -0.171875q0 -0.125 0.109375 -0.171875q0.125 -0.0625 0.3125 -0.125q0.265625 -0.09375 0.53125 -0.203125q0.265625 -0.125 0.265625 -0.5l0 -4.015625q0 -0.5 -0.109375 -0.875q-0.109375 -0.390625 -0.59375 -0.46875q-0.078125 -0.015625 -0.125 -0.0625q-0.046875 -0.0625 -0.046875 -0.171875q0 -0.1875 0.15625 -0.234375q0.5 -0.125 0.796875 -0.265625q0.296875 -0.140625 0.53125 -0.3125q0.234375 -0.1875 0.578125 -0.390625q0.03125 -0.015625 0.0625 -0.03125q0.046875 -0.03125 0.09375 -0.03125q0.125 0 0.125 0.125q0 0.125 -0.046875 0.53125q-0.046875 0.40625 -0.046875 0.65625q0 0.1875 0.03125 0.234375l0.03125 0q0.4375 -0.421875 1.125 -0.828125q0.703125 -0.421875 1.796875 -0.421875q0.671875 0 1.109375 0.296875q0.453125 0.28125 0.75 0.984375l0.0625 0q0.59375 -0.546875 1.359375 -0.90625q0.765625 -0.375 1.671875 -0.375q0.625 0 1.03125 0.375q0.40625 0.359375 0.625 0.96875q0.21875 0.59375 0.21875 1.25l0 3.96875q0 0.375 0.25 0.5q0.265625 0.109375 0.546875 0.203125q0.1875 0.0625 0.296875 0.125q0.125 0.046875 0.125 0.171875q0 0.125 -0.078125 0.171875q-0.078125 0.046875 -0.28125 0.046875q-0.375 0 -0.59375 -0.03125q-0.203125 -0.03125 -0.375 -0.046875q-0.171875 -0.015625 -0.515625 -0.015625q-0.3125 0 -0.515625 0.015625q-0.203125 0.015625 -0.4375 0.046875q-0.21875 0.03125 -0.59375 0.03125q-0.171875 0 -0.28125 -0.046875q-0.09375 -0.046875 -0.09375 -0.171875q0 -0.140625 0.125 -0.1875q0.125 -0.0625 0.3125 -0.109375q0.296875 -0.0625 0.546875 -0.1875q0.25 -0.140625 0.25 -0.515625l0 -3.921875q0 -0.4375 -0.203125 -0.84375q-0.203125 -0.40625 -0.546875 -0.65625q-0.328125 -0.265625 -0.734375 -0.265625q-0.46875 0 -0.875 0.109375q-0.40625 0.109375 -0.75 0.390625q-0.53125 0.40625 -0.53125 1.34375l0 3.84375q0 0.375 0.28125 0.515625q0.28125 0.125 0.5625 0.1875q0.1875 0.046875 0.296875 0.109375q0.125 0.0625 0.125 0.1875q0 0.125 -0.09375 0.171875q-0.078125 0.046875 -0.265625 0.046875q-0.375 0 -0.59375 -0.03125q-0.21875 -0.03125 -0.421875 -0.046875q-0.1875 -0.015625 -0.515625 -0.015625q-0.328125 0 -0.53125 0.015625q-0.203125 0.015625 -0.4375 0.046875q-0.21875 0.03125 -0.578125 0.03125q-0.15625 0 -0.265625 -0.046875q-0.109375 -0.046875 -0.109375 -0.171875q0 -0.140625 0.140625 -0.1875q0.140625 -0.046875 0.28125 -0.109375q0.28125 -0.09375 0.546875 -0.203125q0.28125 -0.125 0.28125 -0.5l0 -3.921875q0 -0.4375 -0.21875 -0.84375q-0.203125 -0.40625 -0.546875 -0.65625q-0.328125 -0.265625 -0.734375 -0.265625q-0.46875 0 -0.875 0.109375q-0.390625 0.109375 -0.75 0.390625q-0.5 0.375 -0.5 1.34375l0 3.84375q0 0.375 0.25 0.5q0.265625 0.109375 0.546875 0.203125q0.15625 0.0625 0.296875 0.109375q0.140625 0.046875 0.140625 0.1875q0 0.125 -0.109375 0.171875q-0.09375 0.046875 -0.265625 0.046875q-0.375 0 -0.59375 -0.03125q-0.203125 -0.03125 -0.390625 -0.046875q-0.1875 -0.015625 -0.53125 -0.015625q-0.3125 0 -0.515625 0.015625q-0.1875 0.015625 -0.40625 0.046875q-0.21875 0.03125 -0.578125 0.03125z" fill-rule="nonzero"/><path fill="#000000" fill-opacity="0.0" d="m444.07217 447.93176l47.24411 0l0 24.062988l-47.24411 0z" fill-rule="evenodd"/><path fill="#ffffff" d="m456.88467 466.98013q-0.796875 0 -1.453125 -0.234375q-0.65625 -0.234375 -1.1875 -0.65625q-0.078125 -0.078125 -0.140625 -0.171875q-0.0625 -0.09375 -0.09375 -0.203125q-0.09375 -0.375 -0.125 -0.96875q-0.03125 -0.59375 -0.0625 -0.984375q0 -0.140625 0.109375 -0.203125q0.109375 -0.0625 0.265625 -0.0625q0.09375 0 0.1875 0.046875q0.09375 0.046875 0.109375 0.15625q0.375 1.4375 1.109375 2.0625q0.734375 0.609375 1.53125 0.609375q0.65625 0 1.15625 -0.28125q0.515625 -0.28125 0.796875 -0.796875q0.296875 -0.515625 0.296875 -1.203125q0 -0.765625 -0.265625 -1.234375q-0.25 -0.484375 -0.71875 -0.828125q-0.453125 -0.359375 -1.125 -0.765625q-0.734375 -0.46875 -1.453125 -0.9375q-0.703125 -0.484375 -1.171875 -1.109375q-0.453125 -0.625 -0.453125 -1.53125q0 -0.9375 0.421875 -1.703125q0.4375 -0.765625 1.296875 -1.21875q0.875 -0.46875 2.171875 -0.46875q0.671875 0 1.15625 0.140625q0.5 0.140625 0.8125 0.265625q0.140625 0.0625 0.234375 0.203125q0.109375 0.125 0.15625 0.265625q0.109375 0.390625 0.234375 0.90625q0.140625 0.5 0.140625 0.953125q0 0.203125 -0.28125 0.203125q-0.171875 0 -0.328125 -0.078125q-0.15625 -0.078125 -0.203125 -0.1875q-0.390625 -0.984375 -0.921875 -1.5q-0.515625 -0.53125 -1.3125 -0.53125q-0.5625 0 -1.046875 0.203125q-0.484375 0.203125 -0.796875 0.671875q-0.296875 0.46875 -0.296875 1.25q0 0.5625 0.359375 1.015625q0.359375 0.453125 0.953125 0.875q0.609375 0.40625 1.296875 0.828125q0.65625 0.390625 1.28125 0.859375q0.625 0.46875 1.015625 1.109375q0.40625 0.640625 0.40625 1.578125q0 1.109375 -0.515625 1.9375q-0.5 0.828125 -1.421875 1.28125q-0.90625 0.4375 -2.125 0.4375zm5.690796 -0.234375q-0.171875 0 -0.28125 -0.046875q-0.09375 -0.046875 -0.09375 -0.171875q0 -0.140625 0.140625 -0.1875q0.140625 -0.0625 0.28125 -0.109375q0.390625 -0.09375 0.59375 -0.234375q0.203125 -0.140625 0.203125 -0.46875l0 -4.046875q0 -0.5 -0.171875 -0.890625q-0.171875 -0.40625 -0.65625 -0.46875q-0.09375 -0.015625 -0.140625 -0.078125q-0.046875 -0.0625 -0.046875 -0.171875q0 -0.203125 0.171875 -0.21875q0.734375 -0.171875 1.21875 -0.453125q0.484375 -0.296875 0.734375 -0.484375q0.171875 -0.125 0.265625 -0.125q0.109375 0 0.109375 0.09375q0 0.140625 -0.046875 0.578125q-0.046875 0.4375 -0.09375 0.984375q-0.03125 0.53125 -0.03125 0.953125l0 4.328125q0 0.3125 0.21875 0.46875q0.21875 0.140625 0.578125 0.234375q0.15625 0.046875 0.296875 0.109375q0.140625 0.046875 0.140625 0.1875q0 0.21875 -0.375 0.21875q-0.359375 0 -0.578125 -0.03125q-0.203125 -0.03125 -0.40625 -0.046875q-0.1875 -0.015625 -0.53125 -0.015625q-0.3125 0 -0.515625 0.015625q-0.203125 0.015625 -0.421875 0.046875q-0.203125 0.03125 -0.5625 0.03125zm1.484375 -9.6875q-0.390625 0 -0.65625 -0.265625q-0.265625 -0.28125 -0.265625 -0.671875q0 -0.40625 0.265625 -0.671875q0.265625 -0.28125 0.65625 -0.28125q0.421875 0 0.6875 0.28125q0.265625 0.265625 0.265625 0.671875q0 0.390625 -0.265625 0.671875q-0.265625 0.265625 -0.6875 0.265625zm3.0863953 9.6875q-0.15625 0 -0.265625 -0.046875q-0.109375 -0.03125 -0.109375 -0.171875q0 -0.125 0.109375 -0.171875q0.125 -0.0625 0.3125 -0.125q0.265625 -0.09375 0.53125 -0.203125q0.265625 -0.125 0.265625 -0.5l0 -4.015625q0 -0.5 -0.109375 -0.875q-0.109375 -0.390625 -0.59375 -0.46875q-0.078125 -0.015625 -0.125 -0.0625q-0.046875 -0.0625 -0.046875 -0.171875q0 -0.1875 0.15625 -0.234375q0.5 -0.125 0.796875 -0.265625q0.296875 -0.140625 0.53125 -0.3125q0.234375 -0.1875 0.578125 -0.390625q0.03125 -0.015625 0.0625 -0.03125q0.046875 -0.03125 0.09375 -0.03125q0.125 0 0.125 0.125q0 0.125 -0.046875 0.53125q-0.046875 0.40625 -0.046875 0.65625q0 0.1875 0.03125 0.234375l0.03125 0q0.4375 -0.421875 1.125 -0.828125q0.703125 -0.421875 1.796875 -0.421875q0.671875 0 1.109375 0.296875q0.453125 0.28125 0.75 0.984375l0.0625 0q0.59375 -0.546875 1.359375 -0.90625q0.765625 -0.375 1.671875 -0.375q0.625 0 1.03125 0.375q0.40625 0.359375 0.625 0.96875q0.21875 0.59375 0.21875 1.25l0 3.96875q0 0.375 0.25 0.5q0.265625 0.109375 0.546875 0.203125q0.1875 0.0625 0.296875 0.125q0.125 0.046875 0.125 0.171875q0 0.125 -0.078125 0.171875q-0.078125 0.046875 -0.28125 0.046875q-0.375 0 -0.59375 -0.03125q-0.203125 -0.03125 -0.375 -0.046875q-0.171875 -0.015625 -0.515625 -0.015625q-0.3125 0 -0.515625 0.015625q-0.203125 0.015625 -0.4375 0.046875q-0.21875 0.03125 -0.59375 0.03125q-0.171875 0 -0.28125 -0.046875q-0.09375 -0.046875 -0.09375 -0.171875q0 -0.140625 0.125 -0.1875q0.125 -0.0625 0.3125 -0.109375q0.296875 -0.0625 0.546875 -0.1875q0.25 -0.140625 0.25 -0.515625l0 -3.921875q0 -0.4375 -0.203125 -0.84375q-0.203125 -0.40625 -0.546875 -0.65625q-0.328125 -0.265625 -0.734375 -0.265625q-0.46875 0 -0.875 0.109375q-0.40625 0.109375 -0.75 0.390625q-0.53125 0.40625 -0.53125 1.34375l0 3.84375q0 0.375 0.28125 0.515625q0.28125 0.125 0.5625 0.1875q0.1875 0.046875 0.296875 0.109375q0.125 0.0625 0.125 0.1875q0 0.125 -0.09375 0.171875q-0.078125 0.046875 -0.265625 0.046875q-0.375 0 -0.59375 -0.03125q-0.21875 -0.03125 -0.421875 -0.046875q-0.1875 -0.015625 -0.515625 -0.015625q-0.328125 0 -0.53125 0.015625q-0.203125 0.015625 -0.4375 0.046875q-0.21875 0.03125 -0.578125 0.03125q-0.15625 0 -0.265625 -0.046875q-0.109375 -0.046875 -0.109375 -0.171875q0 -0.140625 0.140625 -0.1875q0.140625 -0.046875 0.28125 -0.109375q0.28125 -0.09375 0.546875 -0.203125q0.28125 -0.125 0.28125 -0.5l0 -3.921875q0 -0.4375 -0.21875 -0.84375q-0.203125 -0.40625 -0.546875 -0.65625q-0.328125 -0.265625 -0.734375 -0.265625q-0.46875 0 -0.875 0.109375q-0.390625 0.109375 -0.75 0.390625q-0.5 0.375 -0.5 1.34375l0 3.84375q0 0.375 0.25 0.5q0.265625 0.109375 0.546875 0.203125q0.15625 0.0625 0.296875 0.109375q0.140625 0.046875 0.140625 0.1875q0 0.125 -0.109375 0.171875q-0.09375 0.046875 -0.265625 0.046875q-0.375 0 -0.59375 -0.03125q-0.203125 -0.03125 -0.390625 -0.046875q-0.1875 -0.015625 -0.53125 -0.015625q-0.3125 0 -0.515625 0.015625q-0.1875 0.015625 -0.40625 0.046875q-0.21875 0.03125 -0.578125 0.03125z" fill-rule="nonzero"/><path fill="#000000" fill-opacity="0.0" d="m444.07217 568.24146l47.24411 0l0 24.062988l-47.24411 0z" fill-rule="evenodd"/><path fill="#ffffff" d="m456.88467 587.28986q-0.796875 0 -1.453125 -0.234375q-0.65625 -0.234375 -1.1875 -0.65625q-0.078125 -0.078125 -0.140625 -0.171875q-0.0625 -0.09375 -0.09375 -0.203125q-0.09375 -0.375 -0.125 -0.96875q-0.03125 -0.59375 -0.0625 -0.984375q0 -0.140625 0.109375 -0.203125q0.109375 -0.0625 0.265625 -0.0625q0.09375 0 0.1875 0.046875q0.09375 0.046875 0.109375 0.15625q0.375 1.4375 1.109375 2.0625q0.734375 0.609375 1.53125 0.609375q0.65625 0 1.15625 -0.28125q0.515625 -0.28125 0.796875 -0.796875q0.296875 -0.515625 0.296875 -1.203125q0 -0.765625 -0.265625 -1.234375q-0.25 -0.484375 -0.71875 -0.828125q-0.453125 -0.359375 -1.125 -0.765625q-0.734375 -0.46875 -1.453125 -0.9375q-0.703125 -0.484375 -1.171875 -1.109375q-0.453125 -0.625 -0.453125 -1.53125q0 -0.9375 0.421875 -1.703125q0.4375 -0.765625 1.296875 -1.21875q0.875 -0.46875 2.171875 -0.46875q0.671875 0 1.15625 0.140625q0.5 0.140625 0.8125 0.265625q0.140625 0.0625 0.234375 0.203125q0.109375 0.125 0.15625 0.265625q0.109375 0.390625 0.234375 0.90625q0.140625 0.5 0.140625 0.953125q0 0.203125 -0.28125 0.203125q-0.171875 0 -0.328125 -0.078125q-0.15625 -0.078125 -0.203125 -0.1875q-0.390625 -0.984375 -0.921875 -1.5q-0.515625 -0.53125 -1.3125 -0.53125q-0.5625 0 -1.046875 0.203125q-0.484375 0.203125 -0.796875 0.671875q-0.296875 0.46875 -0.296875 1.25q0 0.5625 0.359375 1.015625q0.359375 0.453125 0.953125 0.875q0.609375 0.40625 1.296875 0.828125q0.65625 0.390625 1.28125 0.859375q0.625 0.46875 1.015625 1.109375q0.40625 0.640625 0.40625 1.578125q0 1.109375 -0.515625 1.9375q-0.5 0.828125 -1.421875 1.28125q-0.90625 0.4375 -2.125 0.4375zm5.690796 -0.234375q-0.171875 0 -0.28125 -0.046875q-0.09375 -0.046875 -0.09375 -0.171875q0 -0.140625 0.140625 -0.1875q0.140625 -0.0625 0.28125 -0.109375q0.390625 -0.09375 0.59375 -0.234375q0.203125 -0.140625 0.203125 -0.46875l0 -4.046875q0 -0.5 -0.171875 -0.890625q-0.171875 -0.40625 -0.65625 -0.46875q-0.09375 -0.015625 -0.140625 -0.078125q-0.046875 -0.0625 -0.046875 -0.171875q0 -0.203125 0.171875 -0.21875q0.734375 -0.171875 1.21875 -0.453125q0.484375 -0.296875 0.734375 -0.484375q0.171875 -0.125 0.265625 -0.125q0.109375 0 0.109375 0.09375q0 0.140625 -0.046875 0.578125q-0.046875 0.4375 -0.09375 0.984375q-0.03125 0.53125 -0.03125 0.953125l0 4.328125q0 0.3125 0.21875 0.46875q0.21875 0.140625 0.578125 0.234375q0.15625 0.046875 0.296875 0.109375q0.140625 0.046875 0.140625 0.1875q0 0.21875 -0.375 0.21875q-0.359375 0 -0.578125 -0.03125q-0.203125 -0.03125 -0.40625 -0.046875q-0.1875 -0.015625 -0.53125 -0.015625q-0.3125 0 -0.515625 0.015625q-0.203125 0.015625 -0.421875 0.046875q-0.203125 0.03125 -0.5625 0.03125zm1.484375 -9.6875q-0.390625 0 -0.65625 -0.265625q-0.265625 -0.28125 -0.265625 -0.671875q0 -0.40625 0.265625 -0.671875q0.265625 -0.28125 0.65625 -0.28125q0.421875 0 0.6875 0.28125q0.265625 0.265625 0.265625 0.671875q0 0.390625 -0.265625 0.671875q-0.265625 0.265625 -0.6875 0.265625zm3.0863953 9.6875q-0.15625 0 -0.265625 -0.046875q-0.109375 -0.03125 -0.109375 -0.171875q0 -0.125 0.109375 -0.171875q0.125 -0.0625 0.3125 -0.125q0.265625 -0.09375 0.53125 -0.203125q0.265625 -0.125 0.265625 -0.5l0 -4.015625q0 -0.5 -0.109375 -0.875q-0.109375 -0.390625 -0.59375 -0.46875q-0.078125 -0.015625 -0.125 -0.0625q-0.046875 -0.0625 -0.046875 -0.171875q0 -0.1875 0.15625 -0.234375q0.5 -0.125 0.796875 -0.265625q0.296875 -0.140625 0.53125 -0.3125q0.234375 -0.1875 0.578125 -0.390625q0.03125 -0.015625 0.0625 -0.03125q0.046875 -0.03125 0.09375 -0.03125q0.125 0 0.125 0.125q0 0.125 -0.046875 0.53125q-0.046875 0.40625 -0.046875 0.65625q0 0.1875 0.03125 0.234375l0.03125 0q0.4375 -0.421875 1.125 -0.828125q0.703125 -0.421875 1.796875 -0.421875q0.671875 0 1.109375 0.296875q0.453125 0.28125 0.75 0.984375l0.0625 0q0.59375 -0.546875 1.359375 -0.90625q0.765625 -0.375 1.671875 -0.375q0.625 0 1.03125 0.375q0.40625 0.359375 0.625 0.96875q0.21875 0.59375 0.21875 1.25l0 3.96875q0 0.375 0.25 0.5q0.265625 0.109375 0.546875 0.203125q0.1875 0.0625 0.296875 0.125q0.125 0.046875 0.125 0.171875q0 0.125 -0.078125 0.171875q-0.078125 0.046875 -0.28125 0.046875q-0.375 0 -0.59375 -0.03125q-0.203125 -0.03125 -0.375 -0.046875q-0.171875 -0.015625 -0.515625 -0.015625q-0.3125 0 -0.515625 0.015625q-0.203125 0.015625 -0.4375 0.046875q-0.21875 0.03125 -0.59375 0.03125q-0.171875 0 -0.28125 -0.046875q-0.09375 -0.046875 -0.09375 -0.171875q0 -0.140625 0.125 -0.1875q0.125 -0.0625 0.3125 -0.109375q0.296875 -0.0625 0.546875 -0.1875q0.25 -0.140625 0.25 -0.515625l0 -3.921875q0 -0.4375 -0.203125 -0.84375q-0.203125 -0.40625 -0.546875 -0.65625q-0.328125 -0.265625 -0.734375 -0.265625q-0.46875 0 -0.875 0.109375q-0.40625 0.109375 -0.75 0.390625q-0.53125 0.40625 -0.53125 1.34375l0 3.84375q0 0.375 0.28125 0.515625q0.28125 0.125 0.5625 0.1875q0.1875 0.046875 0.296875 0.109375q0.125 0.0625 0.125 0.1875q0 0.125 -0.09375 0.171875q-0.078125 0.046875 -0.265625 0.046875q-0.375 0 -0.59375 -0.03125q-0.21875 -0.03125 -0.421875 -0.046875q-0.1875 -0.015625 -0.515625 -0.015625q-0.328125 0 -0.53125 0.015625q-0.203125 0.015625 -0.4375 0.046875q-0.21875 0.03125 -0.578125 0.03125q-0.15625 0 -0.265625 -0.046875q-0.109375 -0.046875 -0.109375 -0.171875q0 -0.140625 0.140625 -0.1875q0.140625 -0.046875 0.28125 -0.109375q0.28125 -0.09375 0.546875 -0.203125q0.28125 -0.125 0.28125 -0.5l0 -3.921875q0 -0.4375 -0.21875 -0.84375q-0.203125 -0.40625 -0.546875 -0.65625q-0.328125 -0.265625 -0.734375 -0.265625q-0.46875 0 -0.875 0.109375q-0.390625 0.109375 -0.75 0.390625q-0.5 0.375 -0.5 1.34375l0 3.84375q0 0.375 0.25 0.5q0.265625 0.109375 0.546875 0.203125q0.15625 0.0625 0.296875 0.109375q0.140625 0.046875 0.140625 0.1875q0 0.125 -0.109375 0.171875q-0.09375 0.046875 -0.265625 0.046875q-0.375 0 -0.59375 -0.03125q-0.203125 -0.03125 -0.390625 -0.046875q-0.1875 -0.015625 -0.53125 -0.015625q-0.3125 0 -0.515625 0.015625q-0.1875 0.015625 -0.40625 0.046875q-0.21875 0.03125 -0.578125 0.03125z" fill-rule="nonzero"/><path fill="#000000" fill-opacity="0.0" d="m369.4265 600.4042l0 45.039368l389.19684 0" fill-rule="evenodd"/><path stroke="#f3f3f3" stroke-width="2.0" stroke-linejoin="round" stroke-linecap="butt" d="m369.4265 600.4042l0 45.039368l382.34265 0" fill-rule="evenodd"/><path fill="#f3f3f3" stroke="#f3f3f3" stroke-width="2.0" stroke-linecap="butt" d="m751.76917 645.44354l-2.2491455 2.2492065l6.1795654 -2.2492065l-6.1795654 -2.2491455z" fill-rule="evenodd"/><path fill="#000000" fill-opacity="0.0" d="m369.4265 478.8609l0 45.039368l389.19684 0" fill-rule="evenodd"/><path stroke="#93c47d" stroke-width="2.0" stroke-linejoin="round" stroke-linecap="butt" d="m369.4265 478.8609l0 45.039368l382.34265 0" fill-rule="evenodd"/><path fill="#93c47d" stroke="#93c47d" stroke-width="2.0" stroke-linecap="butt" d="m751.76917 523.90027l-2.2491455 2.2491455l6.1795654 -2.2491455l-6.1795654 -2.2491455z" fill-rule="evenodd"/><path fill="#000000" fill-opacity="0.0" d="m369.4265 363.6483l0 45.606323l389.00787 0" fill-rule="evenodd"/><path stroke="#ffd966" stroke-width="2.0" stroke-linejoin="round" stroke-linecap="butt" d="m369.4265 363.6483l0 45.606323l382.1537 0" fill-rule="evenodd"/><path fill="#ffd966" stroke="#ffd966" stroke-width="2.0" stroke-linecap="butt" d="m751.5802 409.2546l-2.2491455 2.2491455l6.1795044 -2.2491455l-6.1795044 -2.249176z" fill-rule="evenodd"/><path fill="#000000" fill-opacity="0.0" d="m369.4265 247.16142l0 45.606308l388.8189 0" fill-rule="evenodd"/><path stroke="#f6b26b" stroke-width="2.0" stroke-linejoin="round" stroke-linecap="butt" d="m369.4265 247.16142l0 45.606308l381.96472 0" fill-rule="evenodd"/><path fill="#f6b26b" stroke="#f6b26b" stroke-width="2.0" stroke-linecap="butt" d="m751.39124 292.76773l-2.2491455 2.2491455l6.1795044 -2.2491455l-6.1795044 -2.249176z" fill-rule="evenodd"/><path fill="#000000" fill-opacity="0.0" d="m369.4265 130.67455l0 46.330704l388.62994 0" fill-rule="evenodd"/><path stroke="#e06666" stroke-width="2.0" stroke-linejoin="round" stroke-linecap="butt" d="m369.4265 130.67455l0 46.330704l381.77576 0" fill-rule="evenodd"/><path fill="#e06666" stroke="#e06666" stroke-width="2.0" stroke-linecap="butt" d="m751.2023 177.00525l-2.2492065 2.2491608l6.1795654 -2.2491608l-6.1795654 -2.2491608z" fill-rule="evenodd"/><path fill="#000000" fill-opacity="0.0" d="m388.32416 111.7769l55.748016 0" fill-rule="evenodd"/><path stroke="#e06666" stroke-width="2.0" stroke-linejoin="round" stroke-linecap="butt" d="m388.32416 111.7769l48.89386 0" fill-rule="evenodd"/><path fill="#e06666" stroke="#e06666" stroke-width="2.0" stroke-linecap="butt" d="m437.21802 111.7769l-2.249176 2.2491684l6.179535 -2.2491684l-6.179535 -2.2491684z" fill-rule="evenodd"/><path fill="#000000" fill-opacity="0.0" d="m388.32416 228.26378l55.748016 0" fill-rule="evenodd"/><path stroke="#f6b26b" stroke-width="2.0" stroke-linejoin="round" stroke-linecap="butt" d="m388.32416 228.26378l48.89386 0" fill-rule="evenodd"/><path fill="#f6b26b" stroke="#f6b26b" stroke-width="2.0" stroke-linecap="butt" d="m437.21802 228.26378l-2.249176 2.2491608l6.179535 -2.2491608l-6.179535 -2.2491608z" fill-rule="evenodd"/><path fill="#000000" fill-opacity="0.0" d="m388.32416 344.75067l55.748016 0" fill-rule="evenodd"/><path stroke="#ffd966" stroke-width="2.0" stroke-linejoin="round" stroke-linecap="butt" d="m388.32416 344.75067l48.89386 0" fill-rule="evenodd"/><path fill="#ffd966" stroke="#ffd966" stroke-width="2.0" stroke-linecap="butt" d="m437.21802 344.75067l-2.249176 2.2491455l6.179535 -2.2491455l-6.179535 -2.249176z" fill-rule="evenodd"/><path fill="#000000" fill-opacity="0.0" d="m388.32416 459.96326l55.748016 0" fill-rule="evenodd"/><path stroke="#93c47d" stroke-width="2.0" stroke-linejoin="round" stroke-linecap="butt" d="m388.32416 459.96326l48.89386 0" fill-rule="evenodd"/><path fill="#93c47d" stroke="#93c47d" stroke-width="2.0" stroke-linecap="butt" d="m437.21802 459.96326l-2.249176 2.249176l6.179535 -2.249176l-6.179535 -2.249176z" fill-rule="evenodd"/><path fill="#000000" fill-opacity="0.0" d="m388.32416 581.50134l55.748016 -1.2283936" fill-rule="evenodd"/><path stroke="#d9d9d9" stroke-width="2.0" stroke-linejoin="round" stroke-linecap="butt" d="m388.32416 581.50134l48.895508 -1.0773926" fill-rule="evenodd"/><path fill="#d9d9d9" stroke="#d9d9d9" stroke-width="2.0" stroke-linecap="butt" d="m437.21967 580.42395l-2.1990662 2.2981567l6.128479 -2.3847046l-6.2275696 -2.1125488z" fill-rule="evenodd"/><path fill="#000000" fill-opacity="0.0" d="m491.31628 111.7769l359.1811 0.5984268" fill-rule="evenodd"/><path stroke="#e06666" stroke-width="2.0" stroke-linejoin="round" stroke-linecap="butt" d="m491.31628 111.7769l352.3269 0.5870056" fill-rule="evenodd"/><path fill="#e06666" stroke="#e06666" stroke-width="2.0" stroke-linecap="butt" d="m843.6432 112.36391l-2.2528687 2.2454147l6.1832275 -2.238861l-6.1757812 -2.2594604z" fill-rule="evenodd"/><path fill="#000000" fill-opacity="0.0" d="m491.31628 228.26378l359.1811 0.31495667" fill-rule="evenodd"/><path stroke="#f6b26b" stroke-width="2.0" stroke-linejoin="round" stroke-linecap="butt" d="m491.31628 228.26378l352.3269 0.30895996" fill-rule="evenodd"/><path fill="#f6b26b" stroke="#f6b26b" stroke-width="2.0" stroke-linecap="butt" d="m843.6432 228.57272l-2.2510986 2.2472076l6.1814575 -2.2437592l-6.1775513 -2.2545776z" fill-rule="evenodd"/><path fill="#000000" fill-opacity="0.0" d="m491.31628 344.75067l359.1811 0.1574707" fill-rule="evenodd"/><path stroke="#ffd966" stroke-width="2.0" stroke-linejoin="round" stroke-linecap="butt" d="m491.31628 344.75067l352.3269 0.15447998" fill-rule="evenodd"/><path fill="#ffd966" stroke="#ffd966" stroke-width="2.0" stroke-linecap="butt" d="m843.6432 344.90512l-2.250122 2.2481995l6.180481 -2.24646l-6.178528 -2.251892z" fill-rule="evenodd"/><path fill="#000000" fill-opacity="0.0" d="m491.31628 459.96326l359.1811 0" fill-rule="evenodd"/><path stroke="#93c47d" stroke-width="2.0" stroke-linejoin="round" stroke-linecap="butt" d="m491.31628 459.96326l352.3269 0" fill-rule="evenodd"/><path fill="#93c47d" stroke="#93c47d" stroke-width="2.0" stroke-linecap="butt" d="m843.6432 459.96326l-2.2491455 2.249176l6.1795044 -2.249176l-6.1795044 -2.249176z" fill-rule="evenodd"/><path fill="#000000" fill-opacity="0.0" d="m491.31628 580.27295l220.5039 -0.34643555" fill-rule="evenodd"/><path stroke="#d9d9d9" stroke-width="2.0" stroke-linejoin="round" stroke-linecap="butt" d="m491.31628 580.27295l220.5039 -0.34643555" fill-rule="evenodd"/><path fill="#000000" fill-opacity="0.0" d="m711.8202 580.93964l0.5354614 -118.70868" fill-rule="evenodd"/><path stroke="#d9d9d9" stroke-width="2.0" stroke-linejoin="round" stroke-linecap="butt" stroke-dasharray="8.0,6.0" d="m711.8202 580.93964l0.5045166 -111.85458" fill-rule="evenodd"/><path fill="#d9d9d9" stroke="#d9d9d9" stroke-width="2.0" stroke-linecap="butt" d="m712.3247 469.08508l2.2390137 2.2592773l-2.2212524 -6.1896057l-2.2770386 6.1693115z" fill-rule="evenodd"/><path fill="#000000" fill-opacity="0.0" d="m712.35565 458.60892l0.22045898 -112.346436" fill-rule="evenodd"/><path stroke="#d9d9d9" stroke-width="2.0" stroke-linejoin="round" stroke-linecap="butt" stroke-dasharray="8.0,6.0" d="m712.35565 458.60892l0.20703125 -105.49228" fill-rule="evenodd"/><path fill="#d9d9d9" stroke="#d9d9d9" stroke-width="2.0" stroke-linecap="butt" d="m712.5627 353.11664l2.244751 2.2535706l-2.2370605 -6.1839294l-2.2612915 6.17511z" fill-rule="evenodd"/><path fill="#000000" fill-opacity="0.0" d="m712.35565 343.47375l0.22045898 -112.34645" fill-rule="evenodd"/><path stroke="#d9d9d9" stroke-width="2.0" stroke-linejoin="round" stroke-linecap="butt" stroke-dasharray="8.0,6.0" d="m712.35565 343.47375l0.20703125 -105.492294" fill-rule="evenodd"/><path fill="#d9d9d9" stroke="#d9d9d9" stroke-width="2.0" stroke-linecap="butt" d="m712.5627 237.98146l2.244751 2.2535706l-2.2370605 -6.1839294l-2.2612915 6.17511z" fill-rule="evenodd"/><path fill="#000000" fill-opacity="0.0" d="m712.5761 227.89896l0.22045898 -112.346466" fill-rule="evenodd"/><path stroke="#d9d9d9" stroke-width="2.0" stroke-linejoin="round" stroke-linecap="butt" stroke-dasharray="8.0,6.0" d="m712.5761 227.89896l0.20703125 -105.49231" fill-rule="evenodd"/><path fill="#d9d9d9" stroke="#d9d9d9" stroke-width="2.0" stroke-linecap="butt" d="m712.78314 122.406654l2.244751 2.2535782l-2.2370605 -6.183937l-2.2612915 6.17511z" fill-rule="evenodd"/><path fill="#f3f3f3" d="m762.62335 268.83203l49.13385 0l0 49.13385l-49.13385 0z" fill-rule="evenodd"/><path stroke="#f6b26b" stroke-width="3.0" stroke-linejoin="round" stroke-linecap="butt" d="m762.62335 268.83203l49.13385 0l0 49.13385l-49.13385 0z" fill-rule="evenodd"/><path fill="#f3f3f3" d="m762.62335 150.58792l49.13385 0l0 49.133865l-49.13385 0z" fill-rule="evenodd"/><path stroke="#e06666" stroke-width="3.0" stroke-linejoin="round" stroke-linecap="butt" d="m762.62335 150.58792l49.13385 0l0 49.133865l-49.13385 0z" fill-rule="evenodd"/><path fill="#f3f3f3" d="m762.62335 383.72964l49.13385 0l0 49.13388l-49.13385 0z" fill-rule="evenodd"/><path stroke="#ffd966" stroke-width="3.0" stroke-linejoin="round" stroke-linecap="butt" d="m762.62335 383.72964l49.13385 0l0 49.13388l-49.13385 0z" fill-rule="evenodd"/><path fill="#f3f3f3" d="m762.62335 620.3018l49.13385 0l0 49.13385l-49.13385 0z" fill-rule="evenodd"/><path stroke="#d9d9d9" stroke-width="3.0" stroke-linejoin="round" stroke-linecap="butt" d="m762.62335 620.3018l49.13385 0l0 49.13385l-49.13385 0z" fill-rule="evenodd"/></g></svg>