<svg version="1.1" viewBox="0.0 0.0 1798.4619422572177 1518.4619422572177" fill="none" stroke="none" stroke-linecap="square" stroke-miterlimit="10" xmlns:xlink="http://www.w3.org/1999/xlink" xmlns="http://www.w3.org/2000/svg"><clipPath id="p.0"><path d="m0 0l1798.4619 0l0 1518.4619l-1798.4619 0l0 -1518.4619z" clip-rule="nonzero"/></clipPath><g clip-path="url(#p.0)"><path fill="#000000" fill-opacity="0.0" d="m0 0l1798.4619 0l0 1518.4619l-1798.4619 0z" fill-rule="evenodd"/><path fill="#000000" fill-opacity="0.0" d="m1657.0289 1001.7139l0 -0.8153076l62.362183 0l0 -437.51544" fill-rule="evenodd"/><path stroke="#f9f871" stroke-width="3.0" stroke-linejoin="round" stroke-linecap="butt" stroke-dasharray="12.0,9.0" d="m1667.2777 1000.8986l52.113403 0l0 -437.51544" fill-rule="evenodd"/><path fill="#f9f871" stroke="#f9f871" stroke-width="3.0" stroke-linecap="butt" d="m1667.2777 1000.8986l3.095581 -3.6306763l-8.972534 4.0982056l9.50769 2.6280518z" fill-rule="evenodd"/><path fill="#000000" fill-opacity="0.0" d="m1657.0289 1147.4436l0 -0.59472656l78.77161 0l0 -571.2478" fill-rule="evenodd"/><path stroke="#ffd163" stroke-width="3.0" stroke-linejoin="round" stroke-linecap="butt" stroke-dasharray="12.0,9.0" d="m1667.293 1146.8489l68.50757 0l0 -571.2478" fill-rule="evenodd"/><path fill="#ffd163" stroke="#ffd163" stroke-width="3.0" stroke-linecap="butt" d="m1667.293 1146.8489l3.1728516 -3.5633545l-9.058594 3.9042969l9.448975 2.8319092z" fill-rule="evenodd"/><path fill="#000000" fill-opacity="0.0" d="m1657.0289 1299.9238l0 -0.8248291l98.64563 0l0 -735.6791" fill-rule="evenodd"/><path stroke="#ffa878" stroke-width="3.0" stroke-linejoin="round" stroke-linecap="butt" stroke-dasharray="12.0,9.0" d="m1667.2771 1299.099l88.39746 0l0 -735.6791" fill-rule="evenodd"/><path fill="#ffa878" stroke="#ffa878" stroke-width="3.0" stroke-linecap="butt" d="m1667.277 1299.099l3.092163 -3.633545l-8.96875 4.1065674l9.510132 2.6191406z" fill-rule="evenodd"/><path fill="#000000" fill-opacity="0.0" d="m1657.0289 1452.4042l0 0.75109863l114.51965 0l0 -874.1054" fill-rule="evenodd"/><path stroke="#b067ef" stroke-width="3.0" stroke-linejoin="round" stroke-linecap="butt" stroke-dasharray="12.0,9.0" d="m1667.2826 1453.1554l104.26599 0l0 -874.1055" fill-rule="evenodd"/><path fill="#b067ef" stroke="#b067ef" stroke-width="3.0" stroke-linecap="butt" d="m1667.2827 1453.1554l3.611206 -3.1182861l-9.491089 2.6875l8.998047 4.041992z" fill-rule="evenodd"/><path fill="#000000" fill-opacity="0.0" d="m883.1365 133.07086l566.8624 0l0 399.37006l1.3580322 0" fill-rule="evenodd"/><path stroke="#000000" stroke-width="3.0" stroke-linejoin="round" stroke-linecap="butt" stroke-dasharray="12.0,9.0" d="m883.1365 133.07086l566.8624 0l0 399.37006l1.3580322 0" fill-rule="evenodd"/><path fill="#000000" fill-opacity="0.0" d="m434.9475 105.23622l1046.1343 0l0 427.2126l1.3618164 0" fill-rule="evenodd"/><path stroke="#000000" stroke-width="3.0" stroke-linejoin="round" stroke-linecap="butt" stroke-dasharray="12.0,9.0" d="m434.9475 105.23622l1046.1343 0l0 427.2126l1.3618164 0" fill-rule="evenodd"/><path fill="#000000" fill-opacity="0.0" d="m434.9475 78.708664l1109.6478 0l0 457.76373l1.3442383 0" fill-rule="evenodd"/><path stroke="#000000" stroke-width="3.0" stroke-linejoin="round" stroke-linecap="butt" stroke-dasharray="12.0,9.0" d="m434.9475 78.708664l1109.6478 0l0 457.76373l1.3442383 0" fill-rule="evenodd"/><path fill="#000000" fill-opacity="0.0" d="m434.9475 52.181103l1169.1024 0l0 488.3465l0 0" fill-rule="evenodd"/><path stroke="#000000" stroke-width="3.0" stroke-linejoin="round" stroke-linecap="butt" stroke-dasharray="12.0,9.0" d="m434.9475 52.181103l1169.1024 0l0 488.3465l0 0" fill-rule="evenodd"/><path fill="#000000" fill-opacity="0.0" d="m206.88452 998.8504l0 -867.0866l186.51968 0" fill-rule="evenodd"/><path stroke="#000000" stroke-width="3.0" stroke-linejoin="round" stroke-linecap="butt" stroke-dasharray="12.0,9.0" d="m206.88452 998.8504l0 -867.0866l176.23843 0" fill-rule="evenodd"/><path fill="#000000" stroke="#000000" stroke-width="3.0" stroke-linecap="butt" d="m383.12292 131.76378l-3.3737488 3.3737488l9.269318 -3.3737488l-9.269318 -3.3737488z" fill-rule="evenodd"/><path fill="#000000" fill-opacity="0.0" d="m170.12862 703.4409l0 -598.2047l223.27559 0" fill-rule="evenodd"/><path stroke="#000000" stroke-width="3.0" stroke-linejoin="round" stroke-linecap="butt" stroke-dasharray="12.0,9.0" d="m170.12862 703.4409l0 -598.2047l223.27559 0" fill-rule="evenodd"/><path fill="#000000" fill-opacity="0.0" d="m112.6168 426.4567l0 -347.74805l280.7874 0" fill-rule="evenodd"/><path stroke="#000000" stroke-width="3.0" stroke-linejoin="round" stroke-linecap="butt" stroke-dasharray="12.0,9.0" d="m112.6168 426.4567l0 -347.74805l280.7874 0" fill-rule="evenodd"/><path fill="#000000" fill-opacity="0.0" d="m49.435696 156.30708l1.1385345 0l0 -104.12598l342.83 0" fill-rule="evenodd"/><path stroke="#000000" stroke-width="3.0" stroke-linejoin="round" stroke-linecap="butt" stroke-dasharray="12.0,9.0" d="m49.435696 156.30708l1.1385345 0l0 -104.12598l342.83 0" fill-rule="evenodd"/><path fill="#f9f871" d="m25.4042 142.15749l225.38582 56.34645l0 125.41733l-225.38582 56.346466z" fill-rule="evenodd"/><path fill="#ffd163" d="m25.4042 397.84076l225.38582 56.346466l0 125.41733l-225.38582 56.346436z" fill-rule="evenodd"/><path fill="#ffa878" d="m25.4042 653.52405l225.38582 56.346497l0 125.4173l-225.38582 56.346436z" fill-rule="evenodd"/><path fill="#b067ef" d="m25.4042 909.20734l225.38582 56.346497l0 125.41724l-225.38582 56.346558z" fill-rule="evenodd"/><path fill="#f9f871" d="m-1084.7874 620.9265l111.99994 0l0 321.25983l-111.99994 0z" fill-rule="evenodd"/><path fill="#ffd163" d="m-932.7874 620.9265l112.0 0l0 321.25983l-112.0 0z" fill-rule="evenodd"/><path fill="#ffa878" d="m-780.7874 620.9265l112.0 0l0 321.25983l-112.0 0z" fill-rule="evenodd"/><path fill="#b067ef" d="m-628.7874 621.6982l112.0 0l0 321.25983l-112.0 0z" fill-rule="evenodd"/><path fill="#f9f871" d="m1603.8188 942.1855l-111.62195 27.905518l0 63.24408l111.62195 27.905518z" fill-rule="evenodd"/><path fill="#ffd163" d="m1603.8188 1092.4575l-111.62195 27.905518l0 63.24414l111.62195 27.905518z" fill-rule="evenodd"/><path fill="#ffa878" d="m1603.8188 1242.7296l-111.62195 27.905518l0 63.24414l111.62195 27.905518z" fill-rule="evenodd"/><path fill="#b067ef" d="m1603.8188 1393.0017l-111.62195 27.905518l0 63.24414l111.62195 27.905518z" fill-rule="evenodd"/><path fill="#000000" fill-opacity="0.0" d="m250.79002 261.2126l80.712265 0l0 971.43304l1066.9098 0" fill-rule="evenodd"/><path stroke="#cccccc" stroke-width="3.0" stroke-linejoin="round" stroke-linecap="butt" d="m250.79002 261.2126l80.712265 0l0 971.43304l1066.9098 0" fill-rule="evenodd"/><path fill="#000000" fill-opacity="0.0" d="m250.79002 516.8959l81.54332 -0.44091797" fill-rule="evenodd"/><path stroke="#cccccc" stroke-width="3.0" stroke-linejoin="round" stroke-linecap="butt" d="m250.79002 516.8959l81.54332 -0.44091797" fill-rule="evenodd"/><path fill="#000000" fill-opacity="0.0" d="m250.79002 772.57916l80.56694 0.1574707" fill-rule="evenodd"/><path stroke="#cccccc" stroke-width="3.0" stroke-linejoin="round" stroke-linecap="butt" d="m250.79002 772.57916l80.56694 0.1574707" fill-rule="evenodd"/><path fill="#000000" fill-opacity="0.0" d="m250.79002 1028.2625l81.07088 0.5354004" fill-rule="evenodd"/><path stroke="#cccccc" stroke-width="3.0" stroke-linejoin="round" stroke-linecap="butt" d="m250.79002 1028.2625l81.07088 0.5354004" fill-rule="evenodd"/><path fill="#000000" fill-opacity="0.0" d="m1492.1969 1452.5293l-94.362305 -0.25195312" fill-rule="evenodd"/><path stroke="#b067ef" stroke-width="3.0" stroke-linejoin="round" stroke-linecap="butt" d="m1492.1969 1452.5293l-94.362305 -0.25195312" fill-rule="evenodd"/><path fill="#000000" fill-opacity="0.0" d="m1492.1969 1302.3823l-94.362305 -0.25195312" fill-rule="evenodd"/><path stroke="#ffa878" stroke-width="3.0" stroke-linejoin="round" stroke-linecap="butt" d="m1492.1969 1302.3823l-94.362305 -0.25195312" fill-rule="evenodd"/><path fill="#000000" fill-opacity="0.0" d="m1492.1969 1147.5687l-94.362305 -0.2520752" fill-rule="evenodd"/><path stroke="#ffd163" stroke-width="3.0" stroke-linejoin="round" stroke-linecap="butt" d="m1492.1969 1147.5687l-94.362305 -0.2520752" fill-rule="evenodd"/><path fill="#000000" fill-opacity="0.0" d="m1492.1969 1001.83905l-94.362305 -0.25201416" fill-rule="evenodd"/><path stroke="#f9f871" stroke-width="3.0" stroke-linejoin="round" stroke-linecap="butt" d="m1492.1969 1001.83905l-94.362305 -0.25201416" fill-rule="evenodd"/><path fill="#000000" fill-opacity="0.0" d="m1399.3019 1000.2362l-0.91345215 453.85828" fill-rule="evenodd"/><path stroke="#cccccc" stroke-width="3.0" stroke-linejoin="round" stroke-linecap="butt" d="m1399.3019 1000.2362l-0.91345215 453.85828" fill-rule="evenodd"/><path fill="#d9d9d9" d="m642.4908 898.66876l0 0c0 -10.658386 8.640381 -19.298706 19.298767 -19.298706l325.62305 0c5.118286 0 10.027039 2.0332642 13.64624 5.652466c3.6192017 3.6192017 5.652466 8.527954 5.652466 13.64624l0 19.292358c0 10.658386 -8.64032 19.298706 -19.298706 19.298706l-325.62305 0c-10.658386 0 -19.298767 -8.64032 -19.298767 -19.298706z" fill-rule="evenodd"/><path stroke="#f3f3f3" stroke-width="3.0" stroke-linejoin="round" stroke-linecap="butt" d="m642.4908 898.66876l0 0c0 -10.658386 8.640381 -19.298706 19.298767 -19.298706l325.62305 0c5.118286 0 10.027039 2.0332642 13.64624 5.652466c3.6192017 3.6192017 5.652466 8.527954 5.652466 13.64624l0 19.292358c0 10.658386 -8.64032 19.298706 -19.298706 19.298706l-325.62305 0c-10.658386 0 -19.298767 -8.64032 -19.298767 -19.298706z" fill-rule="evenodd"/><path fill="#d9d9d9" d="m642.4908 850.6049l0 0c0 -6.204834 5.0300293 -11.234863 11.234863 -11.234863l341.7508 0c2.9796753 0 5.8372803 1.1837158 7.944214 3.2906494c2.1069946 2.1069336 3.2906494 4.9645386 3.2906494 7.944214l0 11.23114c0 6.204773 -5.0300293 11.234802 -11.234863 11.234802l-341.7508 0c-6.204834 0 -11.234863 -5.0300293 -11.234863 -11.234802z" fill-rule="evenodd"/><path stroke="#f3f3f3" stroke-width="3.0" stroke-linejoin="round" stroke-linecap="butt" d="m642.4908 850.6049l0 0c0 -6.204834 5.0300293 -11.234863 11.234863 -11.234863l341.7508 0c2.9796753 0 5.8372803 1.1837158 7.944214 3.2906494c2.1069946 2.1069336 3.2906494 4.9645386 3.2906494 7.944214l0 11.23114c0 6.204773 -5.0300293 11.234802 -11.234863 11.234802l-341.7508 0c-6.204834 0 -11.234863 -5.0300293 -11.234863 -11.234802z" fill-rule="evenodd"/><path fill="#d9d9d9" d="m642.4908 697.7738l0 0c0 -10.658386 8.640381 -19.298767 19.298767 -19.298767l325.62305 0c5.118286 0 10.027039 2.0332642 13.64624 5.652466c3.6192017 3.6192627 5.652466 8.527954 5.652466 13.646301l0 19.292297c0 10.658386 -8.64032 19.298706 -19.298706 19.298706l-325.62305 0c-10.658386 0 -19.298767 -8.64032 -19.298767 -19.298706z" fill-rule="evenodd"/><path stroke="#f3f3f3" stroke-width="3.0" stroke-linejoin="round" stroke-linecap="butt" d="m642.4908 697.7738l0 0c0 -10.658386 8.640381 -19.298767 19.298767 -19.298767l325.62305 0c5.118286 0 10.027039 2.0332642 13.64624 5.652466c3.6192017 3.6192627 5.652466 8.527954 5.652466 13.646301l0 19.292297c0 10.658386 -8.64032 19.298706 -19.298706 19.298706l-325.62305 0c-10.658386 0 -19.298767 -8.64032 -19.298767 -19.298706z" fill-rule="evenodd"/><path fill="#d9d9d9" d="m646.99475 562.1176l0 0c0 -10.658386 8.64032 -19.298706 19.298706 -19.298706l325.62305 0c5.118347 0 10.027039 2.0332642 13.64624 5.652466c3.6192017 3.6192017 5.652466 8.527893 5.652466 13.64624l0 19.292358c0 10.658386 -8.64032 19.298706 -19.298706 19.298706l-325.62305 0c-10.658386 0 -19.298706 -8.64032 -19.298706 -19.298706z" fill-rule="evenodd"/><path stroke="#f3f3f3" stroke-width="3.0" stroke-linejoin="round" stroke-linecap="butt" d="m646.99475 562.1176l0 0c0 -10.658386 8.64032 -19.298706 19.298706 -19.298706l325.62305 0c5.118347 0 10.027039 2.0332642 13.64624 5.652466c3.6192017 3.6192017 5.652466 8.527893 5.652466 13.64624l0 19.292358c0 10.658386 -8.64032 19.298706 -19.298706 19.298706l-325.62305 0c-10.658386 0 -19.298706 -8.64032 -19.298706 -19.298706z" fill-rule="evenodd"/><path fill="#000000" fill-opacity="0.0" d="m670.8123 835.1273l0 -94.519714" fill-rule="evenodd"/><path stroke="#f9f871" stroke-width="3.0" stroke-linejoin="round" stroke-linecap="butt" d="m670.8123 835.1273l0 -76.519714" fill-rule="evenodd"/><path fill="#f9f871" stroke="#f9f871" stroke-width="3.0" stroke-linecap="butt" d="m675.7675 758.6076l-4.9552 -13.614258l-4.9552 13.614258z" fill-rule="evenodd"/><path fill="#000000" fill-opacity="0.0" d="m773.33813 835.1273l0 -94.519714" fill-rule="evenodd"/><path stroke="#ffd163" stroke-width="3.0" stroke-linejoin="round" stroke-linecap="butt" d="m773.3382 835.1273l0 -76.519714" fill-rule="evenodd"/><path fill="#ffd163" stroke="#ffd163" stroke-width="3.0" stroke-linecap="butt" d="m778.2934 758.6076l-4.9552 -13.614258l-4.9552 13.614258z" fill-rule="evenodd"/><path fill="#000000" fill-opacity="0.0" d="m875.86395 835.1273l0 -94.519714" fill-rule="evenodd"/><path stroke="#ffa878" stroke-width="3.0" stroke-linejoin="round" stroke-linecap="butt" d="m875.86395 835.1273l0 -76.519714" fill-rule="evenodd"/><path fill="#ffa878" stroke="#ffa878" stroke-width="3.0" stroke-linecap="butt" d="m880.81915 758.6076l-4.9552 -13.614258l-4.9552 13.614258z" fill-rule="evenodd"/><path fill="#000000" fill-opacity="0.0" d="m978.3898 835.1273l0 -94.519714" fill-rule="evenodd"/><path stroke="#b067ef" stroke-width="3.0" stroke-linejoin="round" stroke-linecap="butt" d="m978.3898 835.1273l0 -76.519714" fill-rule="evenodd"/><path fill="#b067ef" stroke="#b067ef" stroke-width="3.0" stroke-linecap="butt" d="m983.345 758.6076l-4.9552 -13.614258l-4.9552 13.614258z" fill-rule="evenodd"/><path fill="#000000" fill-opacity="0.0" d="m670.81104 674.59863l0 -70.04724" fill-rule="evenodd"/><path stroke="#f9f871" stroke-width="3.0" stroke-linejoin="round" stroke-linecap="butt" d="m670.81104 674.5987l0 -52.04724" fill-rule="evenodd"/><path fill="#f9f871" stroke="#f9f871" stroke-width="3.0" stroke-linecap="butt" d="m675.76624 622.55145l-4.9552 -13.614319l-4.9552 13.614319z" fill-rule="evenodd"/><path fill="#000000" fill-opacity="0.0" d="m773.33685 674.59863l0 -70.04724" fill-rule="evenodd"/><path stroke="#ffd163" stroke-width="3.0" stroke-linejoin="round" stroke-linecap="butt" d="m773.33685 674.5987l0 -52.04724" fill-rule="evenodd"/><path fill="#ffd163" stroke="#ffd163" stroke-width="3.0" stroke-linecap="butt" d="m778.29205 622.55145l-4.9552 -13.614319l-4.9552 13.614319z" fill-rule="evenodd"/><path fill="#000000" fill-opacity="0.0" d="m875.8627 674.59863l0 -70.04724" fill-rule="evenodd"/><path stroke="#ffa878" stroke-width="3.0" stroke-linejoin="round" stroke-linecap="butt" d="m875.8626 674.5987l0 -52.04724" fill-rule="evenodd"/><path fill="#ffa878" stroke="#ffa878" stroke-width="3.0" stroke-linecap="butt" d="m880.8178 622.55145l-4.9552 -13.614319l-4.9552 13.614319z" fill-rule="evenodd"/><path fill="#000000" fill-opacity="0.0" d="m978.3884 674.59863l0 -70.04724" fill-rule="evenodd"/><path stroke="#b067ef" stroke-width="3.0" stroke-linejoin="round" stroke-linecap="butt" d="m978.3884 674.5987l0 -52.04724" fill-rule="evenodd"/><path fill="#b067ef" stroke="#b067ef" stroke-width="3.0" stroke-linecap="butt" d="m983.3436 622.55145l-4.9552 -13.614319l-4.9552 13.614319z" fill-rule="evenodd"/><path fill="#ffd163" d="m1623.7979 452.70953l-225.38574 56.346466l0 125.41733l225.38574 56.346436z" fill-rule="evenodd"/><path fill="#000000" fill-opacity="0.0" d="m1011.2152 571.7638l387.21265 0" fill-rule="evenodd"/><path stroke="#cccccc" stroke-width="3.0" stroke-linejoin="round" stroke-linecap="butt" d="m1011.2152 571.7638l369.21265 0" fill-rule="evenodd"/><path fill="#cccccc" stroke="#cccccc" stroke-width="3.0" stroke-linecap="butt" d="m1380.4279 576.719l13.614258 -4.9552l-13.614258 -4.9552z" fill-rule="evenodd"/><path fill="#000000" fill-opacity="0.0" d="m669.35693 992.9574l0 -50.771667" fill-rule="evenodd"/><path stroke="#f9f871" stroke-width="3.0" stroke-linejoin="round" stroke-linecap="butt" d="m669.35693 992.95746l0 -32.771667" fill-rule="evenodd"/><path fill="#f9f871" stroke="#f9f871" stroke-width="3.0" stroke-linecap="butt" d="m674.31213 960.1858l-4.9552 -13.614319l-4.9552 13.614319z" fill-rule="evenodd"/><path fill="#000000" fill-opacity="0.0" d="m771.88275 992.9574l0 -50.771667" fill-rule="evenodd"/><path stroke="#ffd163" stroke-width="3.0" stroke-linejoin="round" stroke-linecap="butt" d="m771.8828 992.95746l0 -32.771667" fill-rule="evenodd"/><path fill="#ffd163" stroke="#ffd163" stroke-width="3.0" stroke-linecap="butt" d="m776.838 960.1858l-4.9552 -13.614319l-4.9552 13.614319z" fill-rule="evenodd"/><path fill="#000000" fill-opacity="0.0" d="m874.40857 992.9574l0 -50.771667" fill-rule="evenodd"/><path stroke="#ffa878" stroke-width="3.0" stroke-linejoin="round" stroke-linecap="butt" d="m874.40857 992.95746l0 -32.771667" fill-rule="evenodd"/><path fill="#ffa878" stroke="#ffa878" stroke-width="3.0" stroke-linecap="butt" d="m879.3638 960.1858l-4.9552 -13.614319l-4.9552 13.614319z" fill-rule="evenodd"/><path fill="#000000" fill-opacity="0.0" d="m977.853 992.9574l0 -50.771667" fill-rule="evenodd"/><path stroke="#b067ef" stroke-width="3.0" stroke-linejoin="round" stroke-linecap="butt" d="m977.853 992.95746l0 -32.771667" fill-rule="evenodd"/><path fill="#b067ef" stroke="#b067ef" stroke-width="3.0" stroke-linecap="butt" d="m982.8082 960.1858l-4.9552 -13.614319l-4.9552 13.614319z" fill-rule="evenodd"/><path fill="#000000" fill-opacity="0.0" d="m333.33334 992.6457l646.48816 -0.15753174" fill-rule="evenodd"/><path stroke="#d9d9d9" stroke-width="3.0" stroke-linejoin="round" stroke-linecap="butt" d="m333.33334 992.6457l646.48816 -0.15753174" fill-rule="evenodd"/><path fill="#cfe2f3" d="m393.4042 131.76378l0 0c0 -5.74028 4.653412 -10.3937 10.393707 -10.3937l20.75589 0l0 0c2.7565918 0 5.4002686 1.095047 7.349457 3.0442429c1.9491882 1.9491959 3.0442505 4.5928802 3.0442505 7.349457l0 0l0 0c0 5.74028 -4.653412 10.393707 -10.393707 10.393707l-20.75589 0l0 0c-5.7402954 0 -10.393707 -4.653427 -10.393707 -10.393707z" fill-rule="evenodd"/><path stroke="#000000" stroke-width="1.0" stroke-linejoin="round" stroke-linecap="butt" d="m393.4042 131.76378l0 0c0 -5.74028 4.653412 -10.3937 10.393707 -10.3937l20.75589 0l0 0c2.7565918 0 5.4002686 1.095047 7.349457 3.0442429c1.9491882 1.9491959 3.0442505 4.5928802 3.0442505 7.349457l0 0l0 0c0 5.74028 -4.653412 10.393707 -10.393707 10.393707l-20.75589 0l0 0c-5.7402954 0 -10.393707 -4.653427 -10.393707 -10.393707z" fill-rule="evenodd"/><path fill="#cfe2f3" d="m393.4042 105.23622l0 0c0 -5.74028 4.653412 -10.3937 10.393707 -10.3937l20.75589 0l0 0c2.7565918 0 5.4002686 1.095047 7.349457 3.0442429c1.9491882 1.9491959 3.0442505 4.5928726 3.0442505 7.349457l0 0l0 0c0 5.74028 -4.653412 10.3937 -10.393707 10.3937l-20.75589 0l0 0c-5.7402954 0 -10.393707 -4.6534195 -10.393707 -10.3937z" fill-rule="evenodd"/><path stroke="#000000" stroke-width="1.0" stroke-linejoin="round" stroke-linecap="butt" d="m393.4042 105.23622l0 0c0 -5.74028 4.653412 -10.3937 10.393707 -10.3937l20.75589 0l0 0c2.7565918 0 5.4002686 1.095047 7.349457 3.0442429c1.9491882 1.9491959 3.0442505 4.5928726 3.0442505 7.349457l0 0l0 0c0 5.74028 -4.653412 10.3937 -10.393707 10.3937l-20.75589 0l0 0c-5.7402954 0 -10.393707 -4.6534195 -10.393707 -10.3937z" fill-rule="evenodd"/><path fill="#cfe2f3" d="m393.4042 78.708664l0 0c0 -5.740288 4.653412 -10.3937 10.393707 -10.3937l20.75589 0l0 0c2.7565918 0 5.4002686 1.095047 7.349457 3.0442429c1.9491882 1.9491959 3.0442505 4.5928726 3.0442505 7.349457l0 0l0 0c0 5.74028 -4.653412 10.3937 -10.393707 10.3937l-20.75589 0l0 0c-5.7402954 0 -10.393707 -4.6534195 -10.393707 -10.3937z" fill-rule="evenodd"/><path stroke="#000000" stroke-width="1.0" stroke-linejoin="round" stroke-linecap="butt" d="m393.4042 78.708664l0 0c0 -5.740288 4.653412 -10.3937 10.393707 -10.3937l20.75589 0l0 0c2.7565918 0 5.4002686 1.095047 7.349457 3.0442429c1.9491882 1.9491959 3.0442505 4.5928726 3.0442505 7.349457l0 0l0 0c0 5.74028 -4.653412 10.3937 -10.393707 10.3937l-20.75589 0l0 0c-5.7402954 0 -10.393707 -4.6534195 -10.393707 -10.3937z" fill-rule="evenodd"/><path fill="#cfe2f3" d="m393.4042 52.181103l0 0c0 -5.740284 4.653412 -10.3937 10.393707 -10.3937l20.75589 0l0 0c2.7565918 0 5.4002686 1.095047 7.349457 3.0442429c1.9491882 1.9491959 3.0442505 4.5928764 3.0442505 7.349457l0 0l0 0c0 5.74028 -4.653412 10.3937 -10.393707 10.3937l-20.75589 0l0 0c-5.7402954 0 -10.393707 -4.6534195 -10.393707 -10.3937z" fill-rule="evenodd"/><path stroke="#000000" stroke-width="1.0" stroke-linejoin="round" stroke-linecap="butt" d="m393.4042 52.181103l0 0c0 -5.740284 4.653412 -10.3937 10.393707 -10.3937l20.75589 0l0 0c2.7565918 0 5.4002686 1.095047 7.349457 3.0442429c1.9491882 1.9491959 3.0442505 4.5928764 3.0442505 7.349457l0 0l0 0c0 5.74028 -4.653412 10.3937 -10.393707 10.3937l-20.75589 0l0 0c-5.7402954 0 -10.393707 -4.6534195 -10.393707 -10.3937z" fill-rule="evenodd"/><path fill="#cfe2f3" d="m841.5932 133.07086l0 0c0 -5.74028 4.6533813 -10.3937 10.393677 -10.3937l20.75592 0l0 0c2.7565918 0 5.4002686 1.095047 7.3494263 3.0442505c1.9492188 1.9491959 3.0442505 4.5928726 3.0442505 7.349449l0 0l0 0c0 5.74028 -4.6533813 10.393707 -10.393677 10.393707l-20.75592 0l0 0c-5.7402954 0 -10.393677 -4.653427 -10.393677 -10.393707z" fill-rule="evenodd"/><path stroke="#000000" stroke-width="1.0" stroke-linejoin="round" stroke-linecap="butt" d="m841.5932 133.07086l0 0c0 -5.74028 4.6533813 -10.3937 10.393677 -10.3937l20.75592 0l0 0c2.7565918 0 5.4002686 1.095047 7.3494263 3.0442505c1.9492188 1.9491959 3.0442505 4.5928726 3.0442505 7.349449l0 0l0 0c0 5.74028 -4.6533813 10.393707 -10.393677 10.393707l-20.75592 0l0 0c-5.7402954 0 -10.393677 -4.653427 -10.393677 -10.393707z" fill-rule="evenodd"/><path fill="#000000" fill-opacity="0.0" d="m434.9475 131.76378l406.6457 1.3228302" fill-rule="evenodd"/><path stroke="#000000" stroke-width="3.0" stroke-linejoin="round" stroke-linecap="butt" stroke-dasharray="12.0,9.0" d="m434.9475 131.76378l388.64575 1.2642822" fill-rule="evenodd"/><path fill="#000000" stroke="#000000" stroke-width="3.0" stroke-linecap="butt" d="m823.57715 137.98323l13.630371 -4.9108887l-13.598145 -4.9994507z" fill-rule="evenodd"/><path fill="#cfe2f3" d="m1697.2966 571.7638l0 0c0 -9.306213 7.5441895 -16.850403 16.850342 -16.850403l70.96069 0l0 0c4.468994 0 8.754883 1.7752686 11.914917 4.935364c3.1601562 3.1600342 4.935425 7.446045 4.935425 11.915039l0 0l0 0c0 9.306213 -7.5441895 16.850403 -16.850342 16.850403l-70.96069 0c-9.306152 0 -16.850342 -7.5441895 -16.850342 -16.850403z" fill-rule="evenodd"/><path stroke="#000000" stroke-width="1.0" stroke-linejoin="round" stroke-linecap="butt" d="m1697.2966 571.7638l0 0c0 -9.306213 7.5441895 -16.850403 16.850342 -16.850403l70.96069 0l0 0c4.468994 0 8.754883 1.7752686 11.914917 4.935364c3.1601562 3.1600342 4.935425 7.446045 4.935425 11.915039l0 0l0 0c0 9.306213 -7.5441895 16.850403 -16.850342 16.850403l-70.96069 0c-9.306152 0 -16.850342 -7.5441895 -16.850342 -16.850403z" fill-rule="evenodd"/><path fill="#cfe2f3" d="m1615.4856 1001.7139l0 0c0 -5.7402954 4.6534424 -10.393738 10.393677 -10.393738l20.75586 0l0 0c2.7565918 0 5.4002686 1.0950928 7.3494873 3.0442505c1.9492188 1.9492188 3.0443115 4.5928955 3.0443115 7.3494873l0 0l0 0c0 5.7402954 -4.6534424 10.393677 -10.393799 10.393677l-20.75586 0l0 0c-5.7402344 0 -10.393677 -4.6533813 -10.393677 -10.393677z" fill-rule="evenodd"/><path stroke="#000000" stroke-width="1.0" stroke-linejoin="round" stroke-linecap="butt" d="m1615.4856 1001.7139l0 0c0 -5.7402954 4.6534424 -10.393738 10.393677 -10.393738l20.75586 0l0 0c2.7565918 0 5.4002686 1.0950928 7.3494873 3.0442505c1.9492188 1.9492188 3.0443115 4.5928955 3.0443115 7.3494873l0 0l0 0c0 5.7402954 -4.6534424 10.393677 -10.393799 10.393677l-20.75586 0l0 0c-5.7402344 0 -10.393677 -4.6533813 -10.393677 -10.393677z" fill-rule="evenodd"/><path fill="#cfe2f3" d="m1615.4856 1147.4436l0 0c0 -5.7403564 4.6534424 -10.393677 10.393677 -10.393677l20.75586 0l0 0c2.7565918 0 5.4002686 1.0949707 7.3494873 3.0441895c1.9492188 1.9492188 3.0443115 4.5928955 3.0443115 7.3494873l0 0l0 0c0 5.7402344 -4.6534424 10.393677 -10.393799 10.393677l-20.75586 0l0 0c-5.7402344 0 -10.393677 -4.6534424 -10.393677 -10.393677z" fill-rule="evenodd"/><path stroke="#000000" stroke-width="1.0" stroke-linejoin="round" stroke-linecap="butt" d="m1615.4856 1147.4436l0 0c0 -5.7403564 4.6534424 -10.393677 10.393677 -10.393677l20.75586 0l0 0c2.7565918 0 5.4002686 1.0949707 7.3494873 3.0441895c1.9492188 1.9492188 3.0443115 4.5928955 3.0443115 7.3494873l0 0l0 0c0 5.7402344 -4.6534424 10.393677 -10.393799 10.393677l-20.75586 0l0 0c-5.7402344 0 -10.393677 -4.6534424 -10.393677 -10.393677z" fill-rule="evenodd"/><path fill="#cfe2f3" d="m1615.4856 1299.9238l0 0c0 -5.7402344 4.6534424 -10.393677 10.393677 -10.393677l20.75586 0l0 0c2.7565918 0 5.4002686 1.0950928 7.3494873 3.0443115c1.9492188 1.9492188 3.0443115 4.5928955 3.0443115 7.349365l0 0l0 0c0 5.7403564 -4.6534424 10.393799 -10.393799 10.393799l-20.75586 0l0 0c-5.7402344 0 -10.393677 -4.6534424 -10.393677 -10.393799z" fill-rule="evenodd"/><path stroke="#000000" stroke-width="1.0" stroke-linejoin="round" stroke-linecap="butt" d="m1615.4856 1299.9238l0 0c0 -5.7402344 4.6534424 -10.393677 10.393677 -10.393677l20.75586 0l0 0c2.7565918 0 5.4002686 1.0950928 7.3494873 3.0443115c1.9492188 1.9492188 3.0443115 4.5928955 3.0443115 7.349365l0 0l0 0c0 5.7403564 -4.6534424 10.393799 -10.393799 10.393799l-20.75586 0l0 0c-5.7402344 0 -10.393677 -4.6534424 -10.393677 -10.393799z" fill-rule="evenodd"/><path fill="#cfe2f3" d="m1615.4856 1452.4042l0 0c0 -5.7402344 4.6534424 -10.393677 10.393677 -10.393677l20.75586 0l0 0c2.7565918 0 5.4002686 1.0950928 7.3494873 3.0441895c1.9492188 1.9492188 3.0443115 4.5928955 3.0443115 7.3494873l0 0l0 0c0 5.7403564 -4.6534424 10.393677 -10.393799 10.393677l-20.75586 0l0 0c-5.7402344 0 -10.393677 -4.6533203 -10.393677 -10.393677z" fill-rule="evenodd"/><path stroke="#000000" stroke-width="1.0" stroke-linejoin="round" stroke-linecap="butt" d="m1615.4856 1452.4042l0 0c0 -5.7402344 4.6534424 -10.393677 10.393677 -10.393677l20.75586 0l0 0c2.7565918 0 5.4002686 1.0950928 7.3494873 3.0441895c1.9492188 1.9492188 3.0443115 4.5928955 3.0443115 7.3494873l0 0l0 0c0 5.7403564 -4.6534424 10.393677 -10.393799 10.393677l-20.75586 0l0 0c-5.7402344 0 -10.393677 -4.6533203 -10.393677 -10.393677z" fill-rule="evenodd"/><path fill="#000000" fill-opacity="0.0" d="m1623.7979 571.76465l73.51184 0" fill-rule="evenodd"/><path stroke="#efefef" stroke-width="3.0" stroke-linejoin="round" stroke-linecap="butt" d="m1623.7979 571.76465l55.51184 0" fill-rule="evenodd"/><path fill="#efefef" stroke="#efefef" stroke-width="3.0" stroke-linecap="butt" d="m1679.3097 576.71985l13.614258 -4.9552l-13.614258 -4.9552z" fill-rule="evenodd"/></g></svg>